<?xml version="1.0" encoding="UTF-8" standalone="no"?>
<!DOCTYPE svg PUBLIC "-//W3C//DTD SVG 1.1//EN" "http://www.w3.org/Graphics/SVG/1.1/DTD/svg11.dtd">
<!-- 由 Microsoft Visio, SVG Export 生成 绘图16.svg 页-1 -->
<svg xmlns="http://www.w3.org/2000/svg" xmlns:xlink="http://www.w3.org/1999/xlink" xmlns:ev="http://www.w3.org/2001/xml-events"
		xmlns:v="http://schemas.microsoft.com/visio/2003/SVGExtensions/" width="9.02311in" height="3.03487in"
		viewBox="0 0 649.664 218.511" xml:space="preserve" color-interpolation-filters="sRGB" class="st10">
	<v:documentProperties v:langID="2052"/>

	<style type="text/css">
	<![CDATA[
		.st1 {fill:none;stroke:#000000;stroke-width:0.25}
		.st2 {fill:#00b0f0;font-family:Calibri;font-size:0.833336em}
		.st3 {fill:#000000;font-size:1em}
		.st4 {fill:#ff79b6;stroke:none;stroke-width:0.25}
		.st5 {fill:#feffff;font-family:Calibri;font-size:0.833336em}
		.st6 {fill:#00b0f0;stroke:none;stroke-width:0.25}
		.st7 {marker-end:url(#mrkr5-63);stroke:#000000;stroke-linecap:round;stroke-linejoin:round;stroke-width:0.25}
		.st8 {fill:#000000;fill-opacity:1;stroke:#000000;stroke-opacity:1;stroke-width:0.090252572308492}
		.st9 {fill:#ffffff;stroke:none;stroke-linecap:butt;stroke-width:7.2}
		.st10 {fill:none;fill-rule:evenodd;font-size:12px;overflow:visible;stroke-linecap:square;stroke-miterlimit:3}
	]]>
	</style>

	<defs id="Markers">
		<g id="lend5">
			<path d="M 2 1 L 0 0 L 1.98117 -0.993387 C 1.67173 -0.364514 1.67301 0.372642 1.98465 1.00043 " style="stroke:none"/>
		</g>
		<marker id="mrkr5-63" class="st8" v:arrowType="5" v:arrowSize="2" v:setback="17.95" refX="-17.950026689776" orient="auto"
				markerUnits="strokeWidth" overflow="visible">
			<use xlink:href="#lend5" transform="scale(-11.080016606972,-11.080016606972) "/>
		</marker>
	</defs>
	<g v:mID="0" v:index="1" v:groupContext="foregroundPage">
		<title>页-1</title>
		<v:pageProperties v:drawingScale="0.0393701" v:pageScale="0.0393701" v:drawingUnits="24" v:shadowOffsetX="8.99999"
				v:shadowOffsetY="-8.99999"/>
		<v:layer v:name="Connector" v:index="0"/>
		<g id="group1-1" transform="translate(0.250495,-67.7721)" v:mID="1" v:groupContext="group">
			<title>工作表.1</title>
			<g id="shape2-2" v:mID="2" v:groupContext="shape">
				<title>Rectangle.63</title>
				<desc>isp (v2500)</desc>
				<v:userDefs>
					<v:ud v:nameU="visVersion" v:val="VT0(15):26"/>
				</v:userDefs>
				<v:textBlock v:margins="rect(3.99999,3.99999,3.99999,3.99999)"/>
				<v:textRect cx="47.7555" cy="186.673" width="95.52" height="63.6747"/>
				<rect x="0" y="154.836" width="95.512" height="63.6747" class="st1"/>
				<text x="42.03" y="183.67" class="st2" v:langID="2052"><v:paragraph v:horizAlign="1"/><v:tabList/>isp<v:lf/><tspan
							x="32.33" dy="1.2em" class="st3">(</tspan><tspan class="st3">v</tspan><tspan class="st3">2500</tspan><tspan
							class="st3">)</tspan></text>			</g>
			<g id="shape3-9" v:mID="3" v:groupContext="shape" transform="translate(78.1092,-26.7959)">
				<title>Rectangle.64</title>
				<desc>his</desc>
				<v:userDefs>
					<v:ud v:nameU="visVersion" v:val="VT0(15):26"/>
				</v:userDefs>
				<v:textBlock v:margins="rect(3.99999,3.99999,3.99999,3.99999)" v:tabSpace="42.5196"/>
				<v:textRect cx="13.102" cy="213.469" width="26.21" height="10.0829"/>
				<path d="M0 214.01 A4.5001 4.5001 -180 0 0 4.5 218.51 L21.7 218.51 A4.5001 4.5001 -180 0 0 26.2 214.01 L26.2 212.93
							 A4.5001 4.5001 -180 0 0 21.7 208.43 L4.5 208.43 A4.5001 4.5001 -180 0 0 0 212.93 L0 214.01 Z"
						class="st4"/>
				<text x="7.37" y="216.47" class="st5" v:langID="2052"><v:paragraph v:horizAlign="1"/><v:tabList/>his</text>			</g>
			<g id="shape4-12" v:mID="4" v:groupContext="shape" transform="translate(78.1092,-9.64587)">
				<title>Rectangle.65</title>
				<desc>cap</desc>
				<v:userDefs>
					<v:ud v:nameU="visVersion" v:val="VT0(15):26"/>
				</v:userDefs>
				<v:textBlock v:margins="rect(3.99999,3.99999,3.99999,3.99999)" v:tabSpace="42.5196"/>
				<v:textRect cx="13.102" cy="213.469" width="26.21" height="10.0829"/>
				<path d="M0 214.01 A4.5001 4.5001 -180 0 0 4.5 218.51 L21.7 218.51 A4.5001 4.5001 -180 0 0 26.2 214.01 L26.2 212.93
							 A4.5001 4.5001 -180 0 0 21.7 208.43 L4.5 208.43 A4.5001 4.5001 -180 0 0 0 212.93 L0 214.01 Z"
						class="st4"/>
				<text x="5.97" y="216.47" class="st5" v:langID="2052"><v:paragraph v:horizAlign="1"/><v:tabList/>cap</text>			</g>
			<g id="shape5-15" v:mID="5" v:groupContext="shape" transform="translate(78.1092,-43.1883)">
				<title>Rectangle.66</title>
				<desc>out</desc>
				<v:userDefs>
					<v:ud v:nameU="visVersion" v:val="VT0(15):26"/>
				</v:userDefs>
				<v:textBlock v:margins="rect(3.99999,3.99999,3.99999,3.99999)" v:tabSpace="42.5196"/>
				<v:textRect cx="13.102" cy="213.469" width="26.21" height="10.0829"/>
				<path d="M0 214.01 A4.5001 4.5001 -180 0 0 4.5 218.51 L21.7 218.51 A4.5001 4.5001 -180 0 0 26.2 214.01 L26.2 212.93
							 A4.5001 4.5001 -180 0 0 21.7 208.43 L4.5 208.43 A4.5001 4.5001 -180 0 0 0 212.93 L0 214.01 Z"
						class="st4"/>
				<text x="6.16" y="216.47" class="st5" v:langID="2052"><v:paragraph v:horizAlign="1"/><v:tabList/>out</text>			</g>
		</g>
		<g id="shape7-18" v:mID="7" v:groupContext="shape" transform="translate(369.244,-154.586)">
			<title>Rectangle.123</title>
			<desc>enc_1080p (h1264)</desc>
			<v:userDefs>
				<v:ud v:nameU="visVersion" v:val="VT0(15):26"/>
			</v:userDefs>
			<v:textBlock v:margins="rect(3.99999,3.99999,3.99999,3.99999)"/>
			<v:textRect cx="47.7555" cy="186.673" width="95.52" height="63.6747"/>
			<rect x="0" y="154.836" width="95.512" height="63.6747" class="st1"/>
			<text x="25.27" y="183.67" class="st2" v:langID="2052"><v:paragraph v:horizAlign="1"/><v:tabList/>enc_1080p<v:newlineChar/><tspan
						x="25.74" dy="1.2em" class="st3">(</tspan><tspan class="st3">vencoder</tspan><tspan class="st3">)</tspan></text>		</g>
		<g id="shape8-24" v:mID="8" v:groupContext="shape" transform="translate(436.34,-195.632)">
			<title>Rectangle.124</title>
			<desc>stream</desc>
			<v:userDefs>
				<v:ud v:nameU="visVersion" v:val="VT0(15):26"/>
			</v:userDefs>
			<v:textBlock v:margins="rect(3.99999,3.99999,3.99999,3.99999)" v:tabSpace="42.5196"/>
			<v:textRect cx="18.8436" cy="213.469" width="37.69" height="10.0829"/>
			<path d="M0 214.01 A4.5001 4.5001 -180 0 0 4.5 218.51 L33.19 218.51 A4.5001 4.5001 -180 0 0 37.69 214.01 L37.69 212.93
						 A4.5001 4.5001 -180 0 0 33.19 208.43 L4.5 208.43 A4.5001 4.5001 -180 0 0 -0 212.93 L0 214.01 Z"
					class="st4"/>
			<text x="4.59" y="216.47" class="st5" v:langID="2052"><v:paragraph v:horizAlign="1"/><v:tabList/>stream</text>		</g>
		<g id="shape9-27" v:mID="9" v:groupContext="shape" transform="translate(359.695,-181.382)">
			<title>Rectangle.125</title>
			<desc>frame</desc>
			<v:userDefs>
				<v:ud v:nameU="visVersion" v:val="VT0(15):26"/>
			</v:userDefs>
			<v:textBlock v:margins="rect(3.99999,3.99999,3.99999,3.99999)" v:tabSpace="42.5196"/>
			<v:textRect cx="18.8436" cy="213.469" width="37.69" height="10.0829"/>
			<path d="M0 214.01 A4.5001 4.5001 -180 0 0 4.5 218.51 L33.19 218.51 A4.5001 4.5001 -180 0 0 37.69 214.01 L37.69 212.93
						 A4.5001 4.5001 -180 0 0 33.19 208.43 L4.5 208.43 A4.5001 4.5001 -180 0 0 0 212.93 L0 214.01 Z" class="st6"/>
			<text x="6.7" y="216.47" class="st5" v:langID="2052"><v:paragraph v:horizAlign="1"/><v:tabList/>frame</text>		</g>
		<g id="shape10-30" v:mID="10" v:groupContext="shape" transform="translate(446.296,-166.694)">
			<title>Rectangle.126</title>
			<desc>mv</desc>
			<v:userDefs>
				<v:ud v:nameU="visVersion" v:val="VT0(15):26"/>
			</v:userDefs>
			<v:textBlock v:margins="rect(3.99999,3.99999,3.99999,3.99999)" v:tabSpace="42.5196"/>
			<v:textRect cx="13.8656" cy="213.469" width="27.74" height="10.0829"/>
			<path d="M0 214.01 A4.5001 4.5001 -180 0 0 4.5 218.51 L23.23 218.51 A4.5001 4.5001 -180 0 0 27.73 214.01 L27.73 212.93
						 A4.5001 4.5001 -180 0 0 23.23 208.43 L4.5 208.43 A4.5001 4.5001 -180 0 0 -0 212.93 L0 214.01 Z"
					class="st4"/>
			<text x="7.61" y="216.47" class="st5" v:langID="2052"><v:paragraph v:horizAlign="1"/><v:tabList/>mv</text>		</g>
		<g id="shape12-33" v:mID="12" v:groupContext="shape" transform="translate(369.244,-0.2502)">
			<title>Rectangle.12</title>
			<desc>enc_vga (h1264)</desc>
			<v:userDefs>
				<v:ud v:nameU="visVersion" v:val="VT0(15):26"/>
			</v:userDefs>
			<v:textBlock v:margins="rect(3.99999,3.99999,3.99999,3.99999)" v:tabSpace="42.5196"/>
			<v:textRect cx="47.7555" cy="186.673" width="95.52" height="63.6747"/>
			<rect x="0" y="154.836" width="95.512" height="63.6747" class="st1"/>
			<text x="31.03" y="183.67" class="st2" v:langID="2052"><v:paragraph v:horizAlign="1"/><v:tabList/>enc_vga<v:newlineChar/><tspan
						x="25.74" dy="1.2em" class="st3">(</tspan><tspan class="st3">vencoder</tspan><tspan class="st3">)</tspan></text>		</g>
		<g id="shape13-39" v:mID="13" v:groupContext="shape" transform="translate(436.34,-41.2966)">
			<title>Rectangle.13</title>
			<desc>stream</desc>
			<v:userDefs>
				<v:ud v:nameU="visVersion" v:val="VT0(15):26"/>
			</v:userDefs>
			<v:textBlock v:margins="rect(3.99999,3.99999,3.99999,3.99999)" v:tabSpace="42.5196"/>
			<v:textRect cx="18.8436" cy="213.469" width="37.69" height="10.0829"/>
			<path d="M0 214.01 A4.5001 4.5001 -180 0 0 4.5 218.51 L33.19 218.51 A4.5001 4.5001 -180 0 0 37.69 214.01 L37.69 212.93
						 A4.5001 4.5001 -180 0 0 33.19 208.43 L4.5 208.43 A4.5001 4.5001 -180 0 0 -0 212.93 L0 214.01 Z"
					class="st4"/>
			<text x="4.59" y="216.47" class="st5" v:langID="2052"><v:paragraph v:horizAlign="1"/><v:tabList/>stream</text>		</g>
		<g id="shape14-42" v:mID="14" v:groupContext="shape" transform="translate(359.695,-27.0461)">
			<title>Rectangle.14</title>
			<desc>frame</desc>
			<v:userDefs>
				<v:ud v:nameU="visVersion" v:val="VT0(15):26"/>
			</v:userDefs>
			<v:textBlock v:margins="rect(3.99999,3.99999,3.99999,3.99999)" v:tabSpace="42.5196"/>
			<v:textRect cx="18.8436" cy="213.469" width="37.69" height="10.0829"/>
			<path d="M0 214.01 A4.5001 4.5001 -180 0 0 4.5 218.51 L33.19 218.51 A4.5001 4.5001 -180 0 0 37.69 214.01 L37.69 212.93
						 A4.5001 4.5001 -180 0 0 33.19 208.43 L4.5 208.43 A4.5001 4.5001 -180 0 0 0 212.93 L0 214.01 Z" class="st6"/>
			<text x="6.7" y="216.47" class="st5" v:langID="2052"><v:paragraph v:horizAlign="1"/><v:tabList/>frame</text>		</g>
		<g id="shape15-45" v:mID="15" v:groupContext="shape" transform="translate(446.296,-12.3587)">
			<title>Rectangle.15</title>
			<desc>mv</desc>
			<v:userDefs>
				<v:ud v:nameU="visVersion" v:val="VT0(15):26"/>
			</v:userDefs>
			<v:textBlock v:margins="rect(3.99999,3.99999,3.99999,3.99999)" v:tabSpace="42.5196"/>
			<v:textRect cx="13.8656" cy="213.469" width="27.74" height="10.0829"/>
			<path d="M0 214.01 A4.5001 4.5001 -180 0 0 4.5 218.51 L23.23 218.51 A4.5001 4.5001 -180 0 0 27.73 214.01 L27.73 212.93
						 A4.5001 4.5001 -180 0 0 23.23 208.43 L4.5 208.43 A4.5001 4.5001 -180 0 0 -0 212.93 L0 214.01 Z"
					class="st4"/>
			<text x="7.61" y="216.47" class="st5" v:langID="2052"><v:paragraph v:horizAlign="1"/><v:tabList/>mv</text>		</g>
		<g id="group16-48" transform="translate(544.353,-154.586)" v:mID="16" v:groupContext="group">
			<title>工作表.16</title>
			<g id="shape17-49" v:mID="17" v:groupContext="shape" transform="translate(9.54867,0)">
				<title>Rectangle</title>
				<desc>filesink (filesink)</desc>
				<v:userDefs>
					<v:ud v:nameU="visVersion" v:val="VT0(15):26"/>
				</v:userDefs>
				<v:textBlock v:margins="rect(3.99999,3.99999,3.99999,3.99999)" v:tabSpace="42.5196"/>
				<v:textRect cx="47.7555" cy="186.673" width="95.52" height="63.6747"/>
				<rect x="0" y="154.836" width="95.512" height="63.6747" class="st1"/>
				<text x="33.44" y="183.67" class="st2" v:langID="2052"><v:paragraph v:horizAlign="1"/><v:tabList/>filesink<v:newlineChar/><tspan
							x="30.41" dy="1.2em" class="st3">(</tspan><tspan class="st3">filesink</tspan><tspan class="st3">)</tspan></text>			</g>
			<g id="shape18-55" v:mID="18" v:groupContext="shape" transform="translate(1.9984E-14,-26.7959)">
				<title>Rectangle.2</title>
				<desc>in</desc>
				<v:userDefs>
					<v:ud v:nameU="visVersion" v:val="VT0(15):26"/>
				</v:userDefs>
				<v:textBlock v:margins="rect(3.99999,3.99999,3.99999,3.99999)" v:tabSpace="42.5196"/>
				<v:textRect cx="13.102" cy="213.469" width="26.21" height="10.0829"/>
				<path d="M0 214.01 A4.5001 4.5001 -180 0 0 4.5 218.51 L21.7 218.51 A4.5001 4.5001 -180 0 0 26.2 214.01 L26.2 212.93
							 A4.5001 4.5001 -180 0 0 21.7 208.43 L4.5 208.43 A4.5001 4.5001 -180 0 0 0 212.93 L0 214.01 Z"
						class="st6"/>
				<text x="9.33" y="216.47" class="st5" v:langID="2052"><v:paragraph v:horizAlign="1"/><v:tabList/>in</text>			</g>
		</g>
		<g id="shape19-58" v:mID="19" v:groupContext="shape" v:layerMember="0" transform="translate(104.564,-99.8128)">
			<title>Dynamic connector</title>
			<path d="M0 202.32 C10.33 202.32 10.62 217.62 65.47 218.47 L65.83 218.48" class="st7"/>
		</g>
		<g id="shape20-64" v:mID="20" v:groupContext="shape" v:layerMember="0" transform="translate(289.371,-116.225)">
			<title>Dynamic connector.35</title>
			<desc>1080p</desc>
			<v:userDefs/>
			<v:textBlock v:margins="rect(3.99999,3.99999,3.99999,3.99999)"/>
			<v:textRect cx="14.9849" cy="164.557" width="50" height="20.0036"/>
			<path d="M0 218.51 C10.63 218.51 10.63 203.24 10.63 187.96 C10.63 168.69 10.63 149.41 65.47 148.36 L65.83 148.35"
					class="st7"/>
			<rect v:rectContext="textBkgnd" x="2.22149" y="158.557" width="25.527" height="12.0001" class="st9"/>
			<text x="2.22" y="167.56" class="st2" v:langID="2052"><v:paragraph v:horizAlign="1"/><v:tabList/>1080p</text>		</g>
		<g id="shape21-71" v:mID="21" v:groupContext="shape" v:layerMember="0" transform="translate(289.371,-32.0915)">
			<title>Dynamic connector.36</title>
			<desc>vga</desc>
			<v:userDefs/>
			<v:textBlock v:margins="rect(3.99999,3.99999,3.99999,3.99999)"/>
			<v:textRect cx="15.4549" cy="203.432" width="50" height="20.0036"/>
			<path d="M0 150.79 C10.63 150.79 10.63 165.41 10.63 180.02 C10.63 198.73 10.63 217.44 65.47 218.47 L65.83 218.47"
					class="st7"/>
			<rect v:rectContext="textBkgnd" x="5.22549" y="197.432" width="20.4587" height="12.0001" class="st9"/>
			<text x="5.23" y="206.43" class="st2" v:langID="2052"><v:paragraph v:horizAlign="1"/><v:tabList/>vga</text>		</g>
		<g id="shape22-78" v:mID="22" v:groupContext="shape" v:layerMember="0" transform="translate(474.028,-186.425)">
			<title>Dynamic connector.37</title>
			<path d="M0 204.26 C10.33 204.26 10.62 217.73 65.47 218.48 L65.83 218.48" class="st7"/>
		</g>
		<g id="group23-83" transform="translate(174.888,-59.2446)" v:mID="23" v:groupContext="group">
			<title>工作表.23</title>
			<g id="shape24-84" v:mID="24" v:groupContext="shape" transform="translate(9.56108,-8.68743)">
				<title>Rectangle.82</title>
				<desc>ispostv2 (ispostv2)</desc>
				<v:userDefs>
					<v:ud v:nameU="visVersion" v:val="VT0(15):26"/>
				</v:userDefs>
				<v:textBlock v:margins="rect(3.99999,3.99999,3.99999,3.99999)"/>
				<v:textRect cx="47.8176" cy="186.632" width="95.64" height="63.7575"/>
				<rect x="0" y="154.753" width="95.6363" height="63.7575" class="st1"/>
				<text x="31.03" y="183.63" class="st2" v:langID="2052"><v:paragraph v:horizAlign="1"/><v:tabList/>ispostv2<v:newlineChar/><tspan
							x="28" dy="1.2em" class="st3">(</tspan><tspan class="st3">ispostv</tspan><tspan class="st3">2</tspan><tspan
							class="st3">)</tspan></text>			</g>
			<g id="shape25-91" v:mID="25" v:groupContext="shape" transform="translate(88.2431,-35.5178)">
				<title>Rectangle.83</title>
				<desc>ss0</desc>
				<v:userDefs>
					<v:ud v:nameU="visVersion" v:val="VT0(15):26"/>
				</v:userDefs>
				<v:textBlock v:margins="rect(3.99999,3.99999,3.99999,3.99999)" v:tabSpace="42.5196"/>
				<v:textRect cx="13.119" cy="213.463" width="26.24" height="10.096"/>
				<path d="M0 214.01 A4.5001 4.5001 -180 0 0 4.5 218.51 L21.74 218.51 A4.5001 4.5001 -180 0 0 26.24 214.01 L26.24 212.91
							 A4.5001 4.5001 -180 0 0 21.74 208.41 L4.5 208.41 A4.5001 4.5001 -180 0 0 0 212.91 L0 214.01 Z"
						class="st4"/>
				<text x="6.67" y="216.46" class="st5" v:langID="2052"><v:paragraph v:horizAlign="1"/><v:tabList/>ss0</text>			</g>
			<g id="shape26-94" v:mID="26" v:groupContext="shape" transform="translate(88.2431,-18.3456)">
				<title>Rectangle.84</title>
				<desc>ss1</desc>
				<v:userDefs>
					<v:ud v:nameU="visVersion" v:val="VT0(15):26"/>
				</v:userDefs>
				<v:textBlock v:margins="rect(3.99999,3.99999,3.99999,3.99999)" v:tabSpace="42.5196"/>
				<v:textRect cx="13.119" cy="213.463" width="26.24" height="10.096"/>
				<path d="M0 214.01 A4.5001 4.5001 -180 0 0 4.5 218.51 L21.74 218.51 A4.5001 4.5001 -180 0 0 26.24 214.01 L26.24 212.91
							 A4.5001 4.5001 -180 0 0 21.74 208.41 L4.5 208.41 A4.5001 4.5001 -180 0 0 -0 212.91 L0 214.01 Z"
						class="st4"/>
				<text x="6.67" y="216.46" class="st5" v:langID="2052"><v:paragraph v:horizAlign="1"/><v:tabList/>ss1</text>			</g>
			<g id="shape27-97" v:mID="27" v:groupContext="shape" transform="translate(88.2431,-51.9316)">
				<title>Rectangle.85</title>
				<desc>uo</desc>
				<v:userDefs>
					<v:ud v:nameU="visVersion" v:val="VT0(15):26"/>
				</v:userDefs>
				<v:textBlock v:margins="rect(3.99999,3.99999,3.99999,3.99999)" v:tabSpace="42.5196"/>
				<v:textRect cx="13.119" cy="213.463" width="26.24" height="10.096"/>
				<path d="M0 214.01 A4.5001 4.5001 -180 0 0 4.5 218.51 L21.74 218.51 A4.5001 4.5001 -180 0 0 26.24 214.01 L26.24 212.91
							 A4.5001 4.5001 -180 0 0 21.74 208.41 L4.5 208.41 A4.5001 4.5001 -180 0 0 -0 212.91 L0 214.01 Z"
						class="st4"/>
				<text x="7.86" y="216.46" class="st5" v:langID="2052"><v:paragraph v:horizAlign="1"/><v:tabList/>uo</text>			</g>
			<g id="shape28-100" v:mID="28" v:groupContext="shape" transform="translate(-1.21902E-13,-35.5178)">
				<title>Rectangle.86</title>
				<desc>in</desc>
				<v:userDefs>
					<v:ud v:nameU="visVersion" v:val="VT0(15):26"/>
				</v:userDefs>
				<v:textBlock v:margins="rect(3.99999,3.99999,3.99999,3.99999)" v:tabSpace="42.5196"/>
				<v:textRect cx="13.119" cy="213.463" width="26.24" height="10.096"/>
				<path d="M0 214.01 A4.5001 4.5001 -180 0 0 4.5 218.51 L21.74 218.51 A4.5001 4.5001 -180 0 0 26.24 214.01 L26.24 212.91
							 A4.5001 4.5001 -180 0 0 21.74 208.41 L4.5 208.41 A4.5001 4.5001 -180 0 0 0 212.91 L0 214.01 Z"
						class="st6"/>
				<text x="9.34" y="216.46" class="st5" v:langID="2052"><v:paragraph v:horizAlign="1"/><v:tabList/>in</text>			</g>
			<g id="shape29-103" v:mID="29" v:groupContext="shape" transform="translate(-186.573,164.02) rotate(-90)">
				<title>Rectangle.87</title>
				<desc>ov0</desc>
				<v:userDefs>
					<v:ud v:nameU="visVersion" v:val="VT0(15):26"/>
				</v:userDefs>
				<v:textBlock v:margins="rect(3.99999,3.99999,3.99999,3.99999)" v:tabSpace="42.5196"/>
				<v:textRect cx="13.119" cy="213.463" width="26.24" height="10.096"/>
				<path d="M0 214.01 A4.5001 4.5001 -180 0 0 4.5 218.51 L21.74 218.51 A4.5001 4.5001 -180 0 0 26.24 214.01 L26.24 212.91
							 A4.5001 4.5001 -180 0 0 21.74 208.41 L4.5 208.41 A4.5001 4.5001 -180 0 0 -0 212.91 L0 214.01 Z"
						class="st6"/>
				<text x="5.69" y="216.46" class="st5" v:langID="2052"><v:paragraph v:horizAlign="1"/><v:tabList/>ov0</text>			</g>
			<g id="shape30-106" v:mID="30" v:groupContext="shape" transform="translate(-136.735,164.02) rotate(-90)">
				<title>Rectangle.89</title>
				<desc>ov3</desc>
				<v:userDefs>
					<v:ud v:nameU="visVersion" v:val="VT0(15):26"/>
				</v:userDefs>
				<v:textBlock v:margins="rect(3.99999,3.99999,3.99999,3.99999)" v:tabSpace="42.5196"/>
				<v:textRect cx="13.119" cy="213.463" width="26.24" height="10.096"/>
				<path d="M0 214.01 A4.5001 4.5001 -180 0 0 4.5 218.51 L21.74 218.51 A4.5001 4.5001 -180 0 0 26.24 214.01 L26.24 212.91
							 A4.5001 4.5001 -180 0 0 21.74 208.41 L4.5 208.41 A4.5001 4.5001 -180 0 0 0 212.91 L0 214.01 Z"
						class="st6"/>
				<text x="5.69" y="216.46" class="st5" v:langID="2052"><v:paragraph v:horizAlign="1"/><v:tabList/>ov3</text>			</g>
			<g id="shape31-109" v:mID="31" v:groupContext="shape" transform="translate(-169.96,164.02) rotate(-90)">
				<title>Rectangle.90</title>
				<desc>ov1</desc>
				<v:userDefs>
					<v:ud v:nameU="visVersion" v:val="VT0(15):26"/>
				</v:userDefs>
				<v:textBlock v:margins="rect(3.99999,3.99999,3.99999,3.99999)" v:tabSpace="42.5196"/>
				<v:textRect cx="13.119" cy="213.463" width="26.24" height="10.096"/>
				<path d="M0 214.01 A4.5001 4.5001 -180 0 0 4.5 218.51 L21.74 218.51 A4.5001 4.5001 -180 0 0 26.24 214.01 L26.24 212.91
							 A4.5001 4.5001 -180 0 0 21.74 208.41 L4.5 208.41 A4.5001 4.5001 -180 0 0 -0 212.91 L0 214.01 Z"
						class="st6"/>
				<text x="5.69" y="216.46" class="st5" v:langID="2052"><v:paragraph v:horizAlign="1"/><v:tabList/>ov1</text>			</g>
			<g id="shape32-112" v:mID="32" v:groupContext="shape" transform="translate(-153.348,164.02) rotate(-90)">
				<title>Rectangle.91</title>
				<desc>ov2</desc>
				<v:userDefs>
					<v:ud v:nameU="visVersion" v:val="VT0(15):26"/>
				</v:userDefs>
				<v:textBlock v:margins="rect(3.99999,3.99999,3.99999,3.99999)" v:tabSpace="42.5196"/>
				<v:textRect cx="13.119" cy="213.463" width="26.24" height="10.096"/>
				<path d="M0 214.01 A4.5001 4.5001 -180 0 0 4.5 218.51 L21.74 218.51 A4.5001 4.5001 -180 0 0 26.24 214.01 L26.24 212.91
							 A4.5001 4.5001 -180 0 0 21.74 208.41 L4.5 208.41 A4.5001 4.5001 -180 0 0 -0 212.91 L0 214.01 Z"
						class="st6"/>
				<text x="5.69" y="216.46" class="st5" v:langID="2052"><v:paragraph v:horizAlign="1"/><v:tabList/>ov2</text>			</g>
			<g id="shape33-115" v:mID="33" v:groupContext="shape" transform="translate(-186.573,218.511) rotate(-90)">
				<title>Rectangle.92</title>
				<desc>ov4</desc>
				<v:userDefs>
					<v:ud v:nameU="visVersion" v:val="VT0(15):26"/>
				</v:userDefs>
				<v:textBlock v:margins="rect(3.99999,3.99999,3.99999,3.99999)"/>
				<v:textRect cx="13.119" cy="213.463" width="26.24" height="10.096"/>
				<path d="M0 214.01 A4.5001 4.5001 -180 0 0 4.5 218.51 L21.74 218.51 A4.5001 4.5001 -180 0 0 26.24 214.01 L26.24 212.91
							 A4.5001 4.5001 -180 0 0 21.74 208.41 L4.5 208.41 A4.5001 4.5001 -180 0 0 0 212.91 L0 214.01 Z"
						class="st6"/>
				<text x="5.69" y="216.46" class="st5" v:langID="2052"><v:paragraph v:horizAlign="1"/><v:tabList/>ov4</text>			</g>
			<g id="shape34-118" v:mID="34" v:groupContext="shape" transform="translate(-136.735,218.511) rotate(-90)">
				<title>Rectangle.93</title>
				<desc>ov7</desc>
				<v:userDefs>
					<v:ud v:nameU="visVersion" v:val="VT0(15):26"/>
				</v:userDefs>
				<v:textBlock v:margins="rect(3.99999,3.99999,3.99999,3.99999)" v:tabSpace="42.5196"/>
				<v:textRect cx="13.119" cy="213.463" width="26.24" height="10.096"/>
				<path d="M0 214.01 A4.5001 4.5001 -180 0 0 4.5 218.51 L21.74 218.51 A4.5001 4.5001 -180 0 0 26.24 214.01 L26.24 212.91
							 A4.5001 4.5001 -180 0 0 21.74 208.41 L4.5 208.41 A4.5001 4.5001 -180 0 0 -0 212.91 L0 214.01 Z"
						class="st6"/>
				<text x="5.69" y="216.46" class="st5" v:langID="2052"><v:paragraph v:horizAlign="1"/><v:tabList/>ov7</text>			</g>
			<g id="shape35-121" v:mID="35" v:groupContext="shape" transform="translate(-169.96,218.511) rotate(-90)">
				<title>Rectangle.94</title>
				<desc>ov5</desc>
				<v:userDefs>
					<v:ud v:nameU="visVersion" v:val="VT0(15):26"/>
				</v:userDefs>
				<v:textBlock v:margins="rect(3.99999,3.99999,3.99999,3.99999)"/>
				<v:textRect cx="13.119" cy="213.463" width="26.24" height="10.096"/>
				<path d="M0 214.01 A4.5001 4.5001 -180 0 0 4.5 218.51 L21.74 218.51 A4.5001 4.5001 -180 0 0 26.24 214.01 L26.24 212.91
							 A4.5001 4.5001 -180 0 0 21.74 208.41 L4.5 208.41 A4.5001 4.5001 -180 0 0 0 212.91 L0 214.01 Z"
						class="st6"/>
				<text x="5.69" y="216.46" class="st5" v:langID="2052"><v:paragraph v:horizAlign="1"/><v:tabList/>ov5</text>			</g>
			<g id="shape36-124" v:mID="36" v:groupContext="shape" transform="translate(-153.348,218.511) rotate(-90)">
				<title>Rectangle.95</title>
				<desc>ov6</desc>
				<v:userDefs>
					<v:ud v:nameU="visVersion" v:val="VT0(15):26"/>
				</v:userDefs>
				<v:textBlock v:margins="rect(3.99999,3.99999,3.99999,3.99999)" v:tabSpace="42.5196"/>
				<v:textRect cx="13.119" cy="213.463" width="26.24" height="10.096"/>
				<path d="M0 214.01 A4.5001 4.5001 -180 0 0 4.5 218.51 L21.74 218.51 A4.5001 4.5001 -180 0 0 26.24 214.01 L26.24 212.91
							 A4.5001 4.5001 -180 0 0 21.74 208.41 L4.5 208.41 A4.5001 4.5001 -180 0 0 0 212.91 L0 214.01 Z"
						class="st6"/>
				<text x="5.69" y="216.46" class="st5" v:langID="2052"><v:paragraph v:horizAlign="1"/><v:tabList/>ov6</text>			</g>
		</g>
	</g>
</svg>
