<?xml version="1.0" encoding="UTF-8" standalone="no"?>
<!DOCTYPE svg PUBLIC "-//W3C//DTD SVG 1.1//EN" "http://www.w3.org/Graphics/SVG/1.1/DTD/svg11.dtd">
<!-- 由 Microsoft Visio, SVG Export 生成 绘图14.svg 页-1 -->
<svg xmlns="http://www.w3.org/2000/svg" xmlns:xlink="http://www.w3.org/1999/xlink" xmlns:ev="http://www.w3.org/2001/xml-events"
		xmlns:v="http://schemas.microsoft.com/visio/2003/SVGExtensions/" width="8.62359in" height="2.30929in"
		viewBox="0 0 620.898 166.269" xml:space="preserve" color-interpolation-filters="sRGB" class="st11">
	<v:documentProperties v:langID="2052" v:metric="true" v:viewMarkup="false"/>

	<style type="text/css">
	<![CDATA[
		.st1 {fill:none;stroke:#000000;stroke-width:0.25}
		.st2 {fill:#00b0f0;font-family:Calibri;font-size:0.833336em}
		.st3 {fill:#000000;font-size:1em}
		.st4 {fill:#ff79b6;stroke:none;stroke-width:0.25}
		.st5 {fill:#feffff;font-family:Calibri;font-size:0.833336em}
		.st6 {fill:#00b0f0;stroke:none;stroke-width:0.25}
		.st7 {marker-end:url(#mrkr5-82);stroke:#000000;stroke-linecap:round;stroke-linejoin:round;stroke-width:0.25}
		.st8 {fill:#000000;fill-opacity:1;stroke:#000000;stroke-opacity:1;stroke-width:0.090252638816864}
		.st9 {marker-end:url(#mrkr5-88);stroke:#000000;stroke-linecap:round;stroke-linejoin:round;stroke-width:0.25}
		.st10 {fill:#ffffff;stroke:none;stroke-linecap:butt}
		.st11 {fill:none;fill-rule:evenodd;font-size:12px;overflow:visible;stroke-linecap:square;stroke-miterlimit:3}
	]]>
	</style>

	<defs id="Markers">
		<g id="lend5">
			<path d="M 2 1 L 0 0 L 1.98117 -0.993387 C 1.67173 -0.364514 1.67301 0.372642 1.98465 1.00043 " style="stroke:none"/>
		</g>
		<marker id="mrkr5-82" class="st8" v:arrowType="5" v:arrowSize="2" v:setback="0" refX="-0" orient="auto"
				markerUnits="strokeWidth" overflow="visible">
			<use xlink:href="#lend5" transform="scale(-11.08000844196,-11.08000844196) "/>
		</marker>
		<marker id="mrkr5-88" class="st8" v:arrowType="5" v:arrowSize="2" v:setback="17.95" refX="-17.950013567435" orient="auto"
				markerUnits="strokeWidth" overflow="visible">
			<use xlink:href="#lend5" transform="scale(-11.08000844196,-11.08000844196) "/>
		</marker>
	</defs>
	<g v:mID="0" v:index="1" v:groupContext="foregroundPage">
		<title>页-1</title>
		<v:pageProperties v:drawingScale="0.0393701" v:pageScale="0.0393701" v:drawingUnits="24" v:shadowOffsetX="8.99999"
				v:shadowOffsetY="-8.99999"/>
		<v:layer v:name="Connector" v:index="0"/>
		<g id="group1-1" transform="translate(165.3,-0.25)" v:mID="1" v:groupContext="group">
			<title>工作表.52</title>
			<g id="shape2-2" v:mID="2" v:groupContext="shape" transform="translate(9.56109,0)">
				<title>Rectangle.41</title>
				<desc>h1jpeg(h1jpeg)</desc>
				<v:userDefs>
					<v:ud v:nameU="visVersion" v:val="VT0(15):26"/>
				</v:userDefs>
				<v:textBlock v:margins="rect(4,4,4,4)" v:tabSpace="42.5197"/>
				<v:textRect cx="47.8182" cy="134.39" width="95.64" height="63.7575"/>
				<rect x="0" y="102.511" width="95.6364" height="63.7575" class="st1"/>
				<text x="33.42" y="131.39" class="st2" v:langID="2052"><v:paragraph v:horizAlign="1"/><v:tabList/>h1jpeg<v:newlineChar/><tspan
							x="30.96" dy="1.2em" class="st3">(</tspan><tspan class="st3">h</tspan><tspan class="st3">1</tspan><tspan
							class="st3">jpeg</tspan><tspan class="st3">)</tspan></text>			</g>
			<g id="shape3-10" v:mID="3" v:groupContext="shape" transform="translate(88.2431,-26.8304)">
				<title>Rectangle.42</title>
				<desc>out</desc>
				<v:userDefs>
					<v:ud v:nameU="visVersion" v:val="VT0(15):26"/>
				</v:userDefs>
				<v:textBlock v:margins="rect(4,4,4,4)" v:tabSpace="42.5197"/>
				<v:textRect cx="13.1195" cy="161.221" width="26.24" height="10.096"/>
				<path d="M0 161.77 A4.5001 4.5001 -180 0 0 4.5 166.27 L21.74 166.27 A4.5001 4.5001 -180 0 0 26.24 161.77 L26.24 160.67
							 A4.5001 4.5001 -180 0 0 21.74 156.17 L4.5 156.17 A4.5001 4.5001 -180 0 0 -0 160.67 L0 161.77 Z"
						class="st4"/>
				<text x="6.18" y="164.22" class="st5" v:langID="2052"><v:paragraph v:horizAlign="1"/><v:tabList/>out</text>			</g>
			<g id="shape4-13" v:mID="4" v:groupContext="shape" transform="translate(-5.79536E-14,-26.8304)">
				<title>Rectangle.43</title>
				<desc>in</desc>
				<v:userDefs>
					<v:ud v:nameU="visVersion" v:val="VT0(15):26"/>
				</v:userDefs>
				<v:textBlock v:margins="rect(4,4,4,4)" v:tabSpace="42.5197"/>
				<v:textRect cx="13.1195" cy="161.221" width="26.24" height="10.096"/>
				<path d="M0 161.77 A4.5001 4.5001 -180 0 0 4.5 166.27 L21.74 166.27 A4.5001 4.5001 -180 0 0 26.24 161.77 L26.24 160.67
							 A4.5001 4.5001 -180 0 0 21.74 156.17 L4.5 156.17 A4.5001 4.5001 -180 0 0 -0 160.67 L0 161.77 Z"
						class="st6"/>
				<text x="9.35" y="164.22" class="st5" v:langID="2052"><v:paragraph v:horizAlign="1"/><v:tabList/>in</text>			</g>
		</g>
		<g id="group5-16" transform="translate(165.3,-85.2889)" v:mID="5" v:groupContext="group">
			<title>工作表.56</title>
			<g id="shape6-17" v:mID="6" v:groupContext="shape" transform="translate(9.56109,-8.68743)">
				<title>Rectangle.82</title>
				<desc>ispostv2 (ispostv2)</desc>
				<v:userDefs>
					<v:ud v:nameU="visVersion" v:val="VT0(15):26"/>
				</v:userDefs>
				<v:textBlock v:margins="rect(4,4,4,4)"/>
				<v:textRect cx="47.8182" cy="134.39" width="95.64" height="63.7575"/>
				<rect x="0" y="102.511" width="95.6364" height="63.7575" class="st1"/>
				<text x="31.03" y="131.39" class="st2" v:langID="2052"><v:paragraph v:horizAlign="1"/><v:tabList/>ispostv2<v:newlineChar/><tspan
							x="28" dy="1.2em" class="st3">(</tspan><tspan class="st3">ispostv</tspan><tspan class="st3">2</tspan><tspan
							class="st3">)</tspan></text>			</g>
			<g id="shape7-24" v:mID="7" v:groupContext="shape" transform="translate(88.2431,-35.5179)">
				<title>Rectangle.83</title>
				<desc>ss0</desc>
				<v:userDefs>
					<v:ud v:nameU="visVersion" v:val="VT0(15):26"/>
				</v:userDefs>
				<v:textBlock v:margins="rect(4,4,4,4)" v:tabSpace="42.5197"/>
				<v:textRect cx="13.1195" cy="161.221" width="26.24" height="10.096"/>
				<path d="M0 161.77 A4.5001 4.5001 -180 0 0 4.5 166.27 L21.74 166.27 A4.5001 4.5001 -180 0 0 26.24 161.77 L26.24 160.67
							 A4.5001 4.5001 -180 0 0 21.74 156.17 L4.5 156.17 A4.5001 4.5001 -180 0 0 -0 160.67 L0 161.77 Z"
						class="st4"/>
				<text x="6.67" y="164.22" class="st5" v:langID="2052"><v:paragraph v:horizAlign="1"/><v:tabList/>ss0</text>			</g>
			<g id="shape8-27" v:mID="8" v:groupContext="shape" transform="translate(88.2431,-18.3456)">
				<title>Rectangle.84</title>
				<desc>ss1</desc>
				<v:userDefs>
					<v:ud v:nameU="visVersion" v:val="VT0(15):26"/>
				</v:userDefs>
				<v:textBlock v:margins="rect(4,4,4,4)" v:tabSpace="42.5197"/>
				<v:textRect cx="13.1195" cy="161.221" width="26.24" height="10.096"/>
				<path d="M0 161.77 A4.5001 4.5001 -180 0 0 4.5 166.27 L21.74 166.27 A4.5001 4.5001 -180 0 0 26.24 161.77 L26.24 160.67
							 A4.5001 4.5001 -180 0 0 21.74 156.17 L4.5 156.17 A4.5001 4.5001 -180 0 0 -0 160.67 L0 161.77 Z"
						class="st4"/>
				<text x="6.67" y="164.22" class="st5" v:langID="2052"><v:paragraph v:horizAlign="1"/><v:tabList/>ss1</text>			</g>
			<g id="shape9-30" v:mID="9" v:groupContext="shape" transform="translate(88.2431,-51.9317)">
				<title>Rectangle.85</title>
				<desc>uo</desc>
				<v:userDefs>
					<v:ud v:nameU="visVersion" v:val="VT0(15):26"/>
				</v:userDefs>
				<v:textBlock v:margins="rect(4,4,4,4)" v:tabSpace="42.5197"/>
				<v:textRect cx="13.1195" cy="161.221" width="26.24" height="10.096"/>
				<path d="M0 161.77 A4.5001 4.5001 -180 0 0 4.5 166.27 L21.74 166.27 A4.5001 4.5001 -180 0 0 26.24 161.77 L26.24 160.67
							 A4.5001 4.5001 -180 0 0 21.74 156.17 L4.5 156.17 A4.5001 4.5001 -180 0 0 -0 160.67 L0 161.77 Z"
						class="st4"/>
				<text x="7.86" y="164.22" class="st5" v:langID="2052"><v:paragraph v:horizAlign="1"/><v:tabList/>uo</text>			</g>
			<g id="shape10-33" v:mID="10" v:groupContext="shape" transform="translate(-1.15907E-13,-35.5179)">
				<title>Rectangle.86</title>
				<desc>in</desc>
				<v:userDefs>
					<v:ud v:nameU="visVersion" v:val="VT0(15):26"/>
				</v:userDefs>
				<v:textBlock v:margins="rect(4,4,4,4)" v:tabSpace="42.5197"/>
				<v:textRect cx="13.1195" cy="161.221" width="26.24" height="10.096"/>
				<path d="M0 161.77 A4.5001 4.5001 -180 0 0 4.5 166.27 L21.74 166.27 A4.5001 4.5001 -180 0 0 26.24 161.77 L26.24 160.67
							 A4.5001 4.5001 -180 0 0 21.74 156.17 L4.5 156.17 A4.5001 4.5001 -180 0 0 -0 160.67 L0 161.77 Z"
						class="st6"/>
				<text x="9.35" y="164.22" class="st5" v:langID="2052"><v:paragraph v:horizAlign="1"/><v:tabList/>in</text>			</g>
			<g id="shape11-36" v:mID="11" v:groupContext="shape" transform="translate(-134.331,111.778) rotate(-90)">
				<title>Rectangle.87</title>
				<desc>ov0</desc>
				<v:userDefs>
					<v:ud v:nameU="visVersion" v:val="VT0(15):26"/>
				</v:userDefs>
				<v:textBlock v:margins="rect(4,4,4,4)" v:tabSpace="42.5197"/>
				<v:textRect cx="13.1195" cy="161.221" width="26.24" height="10.096"/>
				<path d="M0 161.77 A4.5001 4.5001 -180 0 0 4.5 166.27 L21.74 166.27 A4.5001 4.5001 -180 0 0 26.24 161.77 L26.24 160.67
							 A4.5001 4.5001 -180 0 0 21.74 156.17 L4.5 156.17 A4.5001 4.5001 -180 0 0 -0 160.67 L0 161.77 Z"
						class="st6"/>
				<text x="5.69" y="164.22" class="st5" v:langID="2052"><v:paragraph v:horizAlign="1"/><v:tabList/>ov0</text>			</g>
			<g id="shape12-39" v:mID="12" v:groupContext="shape" transform="translate(-84.4929,111.778) rotate(-90)">
				<title>Rectangle.89</title>
				<desc>ov3</desc>
				<v:userDefs>
					<v:ud v:nameU="visVersion" v:val="VT0(15):26"/>
				</v:userDefs>
				<v:textBlock v:margins="rect(4,4,4,4)" v:tabSpace="42.5197"/>
				<v:textRect cx="13.1195" cy="161.221" width="26.24" height="10.096"/>
				<path d="M0 161.77 A4.5001 4.5001 -180 0 0 4.5 166.27 L21.74 166.27 A4.5001 4.5001 -180 0 0 26.24 161.77 L26.24 160.67
							 A4.5001 4.5001 -180 0 0 21.74 156.17 L4.5 156.17 A4.5001 4.5001 -180 0 0 -0 160.67 L0 161.77 Z"
						class="st6"/>
				<text x="5.69" y="164.22" class="st5" v:langID="2052"><v:paragraph v:horizAlign="1"/><v:tabList/>ov3</text>			</g>
			<g id="shape13-42" v:mID="13" v:groupContext="shape" transform="translate(-117.718,111.778) rotate(-90)">
				<title>Rectangle.90</title>
				<desc>ov1</desc>
				<v:userDefs>
					<v:ud v:nameU="visVersion" v:val="VT0(15):26"/>
				</v:userDefs>
				<v:textBlock v:margins="rect(4,4,4,4)" v:tabSpace="42.5197"/>
				<v:textRect cx="13.1195" cy="161.221" width="26.24" height="10.096"/>
				<path d="M0 161.77 A4.5001 4.5001 -180 0 0 4.5 166.27 L21.74 166.27 A4.5001 4.5001 -180 0 0 26.24 161.77 L26.24 160.67
							 A4.5001 4.5001 -180 0 0 21.74 156.17 L4.5 156.17 A4.5001 4.5001 -180 0 0 -0 160.67 L0 161.77 Z"
						class="st6"/>
				<text x="5.69" y="164.22" class="st5" v:langID="2052"><v:paragraph v:horizAlign="1"/><v:tabList/>ov1</text>			</g>
			<g id="shape14-45" v:mID="14" v:groupContext="shape" transform="translate(-101.106,111.778) rotate(-90)">
				<title>Rectangle.91</title>
				<desc>ov2</desc>
				<v:userDefs>
					<v:ud v:nameU="visVersion" v:val="VT0(15):26"/>
				</v:userDefs>
				<v:textBlock v:margins="rect(4,4,4,4)" v:tabSpace="42.5197"/>
				<v:textRect cx="13.1195" cy="161.221" width="26.24" height="10.096"/>
				<path d="M0 161.77 A4.5001 4.5001 -180 0 0 4.5 166.27 L21.74 166.27 A4.5001 4.5001 -180 0 0 26.24 161.77 L26.24 160.67
							 A4.5001 4.5001 -180 0 0 21.74 156.17 L4.5 156.17 A4.5001 4.5001 -180 0 0 -0 160.67 L0 161.77 Z"
						class="st6"/>
				<text x="5.69" y="164.22" class="st5" v:langID="2052"><v:paragraph v:horizAlign="1"/><v:tabList/>ov2</text>			</g>
			<g id="shape15-48" v:mID="15" v:groupContext="shape" transform="translate(-134.331,166.269) rotate(-90)">
				<title>Rectangle.92</title>
				<desc>ov4</desc>
				<v:userDefs>
					<v:ud v:nameU="visVersion" v:val="VT0(15):26"/>
				</v:userDefs>
				<v:textBlock v:margins="rect(4,4,4,4)"/>
				<v:textRect cx="13.1195" cy="161.221" width="26.24" height="10.096"/>
				<path d="M0 161.77 A4.5001 4.5001 -180 0 0 4.5 166.27 L21.74 166.27 A4.5001 4.5001 -180 0 0 26.24 161.77 L26.24 160.67
							 A4.5001 4.5001 -180 0 0 21.74 156.17 L4.5 156.17 A4.5001 4.5001 -180 0 0 -0 160.67 L0 161.77 Z"
						class="st6"/>
				<text x="5.69" y="164.22" class="st5" v:langID="2052"><v:paragraph v:horizAlign="1"/><v:tabList/>ov4</text>			</g>
			<g id="shape16-51" v:mID="16" v:groupContext="shape" transform="translate(-84.4929,166.269) rotate(-90)">
				<title>Rectangle.93</title>
				<desc>ov7</desc>
				<v:userDefs>
					<v:ud v:nameU="visVersion" v:val="VT0(15):26"/>
				</v:userDefs>
				<v:textBlock v:margins="rect(4,4,4,4)" v:tabSpace="42.5197"/>
				<v:textRect cx="13.1195" cy="161.221" width="26.24" height="10.096"/>
				<path d="M0 161.77 A4.5001 4.5001 -180 0 0 4.5 166.27 L21.74 166.27 A4.5001 4.5001 -180 0 0 26.24 161.77 L26.24 160.67
							 A4.5001 4.5001 -180 0 0 21.74 156.17 L4.5 156.17 A4.5001 4.5001 -180 0 0 -0 160.67 L0 161.77 Z"
						class="st6"/>
				<text x="5.69" y="164.22" class="st5" v:langID="2052"><v:paragraph v:horizAlign="1"/><v:tabList/>ov7</text>			</g>
			<g id="shape17-54" v:mID="17" v:groupContext="shape" transform="translate(-117.718,166.269) rotate(-90)">
				<title>Rectangle.94</title>
				<desc>ov5</desc>
				<v:userDefs>
					<v:ud v:nameU="visVersion" v:val="VT0(15):26"/>
				</v:userDefs>
				<v:textBlock v:margins="rect(4,4,4,4)"/>
				<v:textRect cx="13.1195" cy="161.221" width="26.24" height="10.096"/>
				<path d="M0 161.77 A4.5001 4.5001 -180 0 0 4.5 166.27 L21.74 166.27 A4.5001 4.5001 -180 0 0 26.24 161.77 L26.24 160.67
							 A4.5001 4.5001 -180 0 0 21.74 156.17 L4.5 156.17 A4.5001 4.5001 -180 0 0 -0 160.67 L0 161.77 Z"
						class="st6"/>
				<text x="5.69" y="164.22" class="st5" v:langID="2052"><v:paragraph v:horizAlign="1"/><v:tabList/>ov5</text>			</g>
			<g id="shape18-57" v:mID="18" v:groupContext="shape" transform="translate(-101.106,166.269) rotate(-90)">
				<title>Rectangle.95</title>
				<desc>ov6</desc>
				<v:userDefs>
					<v:ud v:nameU="visVersion" v:val="VT0(15):26"/>
				</v:userDefs>
				<v:textBlock v:margins="rect(4,4,4,4)" v:tabSpace="42.5197"/>
				<v:textRect cx="13.1195" cy="161.221" width="26.24" height="10.096"/>
				<path d="M0 161.77 A4.5001 4.5001 -180 0 0 4.5 166.27 L21.74 166.27 A4.5001 4.5001 -180 0 0 26.24 161.77 L26.24 160.67
							 A4.5001 4.5001 -180 0 0 21.74 156.17 L4.5 156.17 A4.5001 4.5001 -180 0 0 -0 160.67 L0 161.77 Z"
						class="st6"/>
				<text x="5.69" y="164.22" class="st5" v:langID="2052"><v:paragraph v:horizAlign="1"/><v:tabList/>ov6</text>			</g>
		</g>
		<g id="group19-60" transform="translate(0.25,-93.8163)" v:mID="19" v:groupContext="group">
			<title>工作表.70</title>
			<g id="shape20-61" v:mID="20" v:groupContext="shape">
				<title>Rectangle.63</title>
				<desc>isp (v2500)</desc>
				<v:userDefs>
					<v:ud v:nameU="visVersion" v:val="VT0(15):26"/>
				</v:userDefs>
				<v:textBlock v:margins="rect(4,4,4,4)"/>
				<v:textRect cx="47.7561" cy="134.431" width="95.52" height="63.6747"/>
				<rect x="0" y="102.594" width="95.5121" height="63.6747" class="st1"/>
				<text x="42.03" y="131.43" class="st2" v:langID="2052"><v:paragraph v:horizAlign="1"/><v:tabList/>isp<v:lf/><tspan
							x="32.33" dy="1.2em" class="st3">(</tspan><tspan class="st3">v</tspan><tspan class="st3">2500</tspan><tspan
							class="st3">)</tspan></text>			</g>
			<g id="shape21-68" v:mID="21" v:groupContext="shape" transform="translate(78.1092,-26.7959)">
				<title>Rectangle.64</title>
				<desc>his</desc>
				<v:userDefs>
					<v:ud v:nameU="visVersion" v:val="VT0(15):26"/>
				</v:userDefs>
				<v:textBlock v:margins="rect(4,4,4,4)" v:tabSpace="42.5197"/>
				<v:textRect cx="13.1025" cy="161.227" width="26.21" height="10.0829"/>
				<path d="M0 161.77 A4.5001 4.5001 -180 0 0 4.5 166.27 L21.7 166.27 A4.5001 4.5001 -180 0 0 26.2 161.77 L26.2 160.69
							 A4.5001 4.5001 -180 0 0 21.7 156.19 L4.5 156.19 A4.5001 4.5001 -180 0 0 -0 160.69 L0 161.77 Z"
						class="st4"/>
				<text x="7.37" y="164.23" class="st5" v:langID="2052"><v:paragraph v:horizAlign="1"/><v:tabList/>his</text>			</g>
			<g id="shape22-71" v:mID="22" v:groupContext="shape" transform="translate(78.1092,-9.64588)">
				<title>Rectangle.65</title>
				<desc>cap</desc>
				<v:userDefs>
					<v:ud v:nameU="visVersion" v:val="VT0(15):26"/>
				</v:userDefs>
				<v:textBlock v:margins="rect(4,4,4,4)" v:tabSpace="42.5197"/>
				<v:textRect cx="13.1025" cy="161.227" width="26.21" height="10.0829"/>
				<path d="M0 161.77 A4.5001 4.5001 -180 0 0 4.5 166.27 L21.7 166.27 A4.5001 4.5001 -180 0 0 26.2 161.77 L26.2 160.69
							 A4.5001 4.5001 -180 0 0 21.7 156.19 L4.5 156.19 A4.5001 4.5001 -180 0 0 -0 160.69 L0 161.77 Z"
						class="st4"/>
				<text x="5.97" y="164.23" class="st5" v:langID="2052"><v:paragraph v:horizAlign="1"/><v:tabList/>cap</text>			</g>
			<g id="shape23-74" v:mID="23" v:groupContext="shape" transform="translate(78.1092,-43.1884)">
				<title>Rectangle.66</title>
				<desc>out</desc>
				<v:userDefs>
					<v:ud v:nameU="visVersion" v:val="VT0(15):26"/>
				</v:userDefs>
				<v:textBlock v:margins="rect(4,4,4,4)" v:tabSpace="42.5197"/>
				<v:textRect cx="13.1025" cy="161.227" width="26.21" height="10.0829"/>
				<path d="M0 161.77 A4.5001 4.5001 -180 0 0 4.5 166.27 L21.7 166.27 A4.5001 4.5001 -180 0 0 26.2 161.77 L26.2 160.69
							 A4.5001 4.5001 -180 0 0 21.7 156.19 L4.5 156.19 A4.5001 4.5001 -180 0 0 -0 160.69 L0 161.77 Z"
						class="st4"/>
				<text x="6.16" y="164.23" class="st5" v:langID="2052"><v:paragraph v:horizAlign="1"/><v:tabList/>out</text>			</g>
		</g>
		<g id="shape24-77" v:mID="24" v:groupContext="shape" v:layerMember="0" transform="translate(104.564,-125.905)">
			<title>Dynamic connector.75</title>
			<path d="M0 150.13 C10.28 150.13 10.62 165.26 55.89 166.27 L56.25 166.27 L60.74 166.27" class="st7"/>
		</g>
		<g id="shape25-83" v:mID="25" v:groupContext="shape" v:layerMember="0" transform="translate(104.564,-32.1326)">
			<title>Dynamic connector.76</title>
			<path d="M0 89.9 C10.63 89.9 10.63 107.38 10.63 124.86 C10.63 144.88 10.63 164.89 55.89 166.2 L56.25 166.21"
					class="st9"/>
		</g>
		<g id="shape31-89" v:mID="31" v:groupContext="shape" v:layerMember="0" transform="translate(279.782,-125.707)">
			<title>Dynamic connector.82</title>
			<desc>1080p</desc>
			<v:userDefs/>
			<v:textBlock v:margins="rect(4,4,4,4)"/>
			<v:textRect cx="28.8429" cy="163.08" width="50" height="20.0036"/>
			<path d="M0 149.71 C10.28 149.71 10.62 165.23 55.89 166.27 L56.25 166.27 L60.74 166.27" class="st7"/>
			<rect v:rectContext="textBkgnd" x="16.0795" y="157.08" width="25.527" height="12.0001" class="st10"/>
			<text x="16.08" y="166.08" class="st2" v:langID="2052"><v:paragraph v:horizAlign="1"/><v:tabList/>1080p</text>		</g>
		<g id="group32-96" transform="translate(515.588,-93.8163)" v:mID="32" v:groupContext="group">
			<title>工作表.83</title>
			<g id="shape33-97" v:mID="33" v:groupContext="shape" transform="translate(9.54868,2.84217E-14)">
				<title>Rectangle</title>
				<desc>filesink (filesink)</desc>
				<v:userDefs>
					<v:ud v:nameU="visVersion" v:val="VT0(15):26"/>
				</v:userDefs>
				<v:textBlock v:margins="rect(4,4,4,4)" v:tabSpace="42.5197"/>
				<v:textRect cx="47.7561" cy="134.431" width="95.52" height="63.6747"/>
				<rect x="0" y="102.594" width="95.5121" height="63.6747" class="st1"/>
				<text x="33.44" y="131.43" class="st2" v:langID="2052"><v:paragraph v:horizAlign="1"/><v:tabList/>filesink<v:newlineChar/><tspan
							x="30.41" dy="1.2em" class="st3">(</tspan><tspan class="st3">filesink</tspan><tspan class="st3">)</tspan></text>			</g>
			<g id="shape34-103" v:mID="34" v:groupContext="shape" transform="translate(2.19824E-14,-26.7959)">
				<title>Rectangle.2</title>
				<desc>in</desc>
				<v:userDefs>
					<v:ud v:nameU="visVersion" v:val="VT0(15):26"/>
				</v:userDefs>
				<v:textBlock v:margins="rect(4,4,4,4)" v:tabSpace="42.5197"/>
				<v:textRect cx="13.1025" cy="161.227" width="26.21" height="10.0829"/>
				<path d="M0 161.77 A4.5001 4.5001 -180 0 0 4.5 166.27 L21.7 166.27 A4.5001 4.5001 -180 0 0 26.2 161.77 L26.2 160.69
							 A4.5001 4.5001 -180 0 0 21.7 156.19 L4.5 156.19 A4.5001 4.5001 -180 0 0 -0 160.69 L0 161.77 Z"
						class="st6"/>
				<text x="9.33" y="164.23" class="st5" v:langID="2052"><v:paragraph v:horizAlign="1"/><v:tabList/>in</text>			</g>
		</g>
		<g id="shape35-106" v:mID="35" v:groupContext="shape" v:layerMember="0" transform="translate(454.852,-125.569)">
			<title>Dynamic connector.86</title>
			<path d="M0 151.93 C10.28 151.93 10.62 165.24 55.89 166.13 L56.25 166.14 L60.74 166.27" class="st7"/>
		</g>
		<g id="group36-111" transform="translate(340.518,-93.8163)" v:mID="36" v:groupContext="group">
			<title>工作表.36</title>
			<g id="shape27-112" v:mID="27" v:groupContext="shape" transform="translate(9.54868,0)">
				<title>Rectangle.123</title>
				<desc>h1264 (h1264)</desc>
				<v:userDefs>
					<v:ud v:nameU="visVersion" v:val="VT0(15):26"/>
				</v:userDefs>
				<v:textBlock v:margins="rect(4,4,4,4)" v:tabSpace="42.5197"/>
				<v:textRect cx="47.7561" cy="134.431" width="95.52" height="63.6747"/>
				<rect x="0" y="102.594" width="95.5121" height="63.6747" class="st1"/>
				<text x="34.99" y="131.43" class="st2" v:langID="2052"><v:paragraph v:horizAlign="1"/><v:tabList/>h1264<v:newlineChar/><tspan
							x="25.74" dy="1.2em" class="st3">(</tspan><tspan class="st3">vencoder</tspan><tspan class="st3">)</tspan></text>			</g>
			<g id="shape28-118" v:mID="28" v:groupContext="shape" transform="translate(76.6453,-41.0465)">
				<title>Rectangle.124</title>
				<desc>stream</desc>
				<v:userDefs>
					<v:ud v:nameU="visVersion" v:val="VT0(15):26"/>
				</v:userDefs>
				<v:textBlock v:margins="rect(4,4,4,4)" v:tabSpace="42.5197"/>
				<v:textRect cx="18.8441" cy="161.227" width="37.69" height="10.0829"/>
				<path d="M0 161.77 A4.5001 4.5001 -180 0 0 4.5 166.27 L33.19 166.27 A4.5001 4.5001 -180 0 0 37.69 161.77 L37.69 160.69
							 A4.5001 4.5001 -180 0 0 33.19 156.19 L4.5 156.19 A4.5001 4.5001 -180 0 0 0 160.69 L0 161.77 Z"
						class="st4"/>
				<text x="4.59" y="164.23" class="st5" v:langID="2052"><v:paragraph v:horizAlign="1"/><v:tabList/>stream</text>			</g>
			<g id="shape29-121" v:mID="29" v:groupContext="shape" transform="translate(1.59872E-14,-26.7959)">
				<title>Rectangle.125</title>
				<desc>frame</desc>
				<v:userDefs>
					<v:ud v:nameU="visVersion" v:val="VT0(15):26"/>
				</v:userDefs>
				<v:textBlock v:margins="rect(4,4,4,4)" v:tabSpace="42.5197"/>
				<v:textRect cx="18.8441" cy="161.227" width="37.69" height="10.0829"/>
				<path d="M-0 161.77 A4.5001 4.5001 -180 0 0 4.5 166.27 L33.19 166.27 A4.5001 4.5001 -180 0 0 37.69 161.77 L37.69
							 160.69 A4.5001 4.5001 -180 0 0 33.19 156.19 L4.5 156.19 A4.5001 4.5001 -180 0 0 -0 160.69 L0 161.77
							 Z" class="st6"/>
				<text x="6.7" y="164.23" class="st5" v:langID="2052"><v:paragraph v:horizAlign="1"/><v:tabList/>frame</text>			</g>
			<g id="shape30-124" v:mID="30" v:groupContext="shape" transform="translate(86.6013,-12.1085)">
				<title>Rectangle.126</title>
				<desc>mv</desc>
				<v:userDefs>
					<v:ud v:nameU="visVersion" v:val="VT0(15):26"/>
				</v:userDefs>
				<v:textBlock v:margins="rect(4,4,4,4)" v:tabSpace="42.5197"/>
				<v:textRect cx="13.8661" cy="161.227" width="27.74" height="10.0829"/>
				<path d="M0 161.77 A4.5001 4.5001 -180 0 0 4.5 166.27 L23.23 166.27 A4.5001 4.5001 -180 0 0 27.73 161.77 L27.73 160.69
							 A4.5001 4.5001 -180 0 0 23.23 156.19 L4.5 156.19 A4.5001 4.5001 -180 0 0 0 160.69 L0 161.77 Z"
						class="st4"/>
				<text x="7.61" y="164.23" class="st5" v:langID="2052"><v:paragraph v:horizAlign="1"/><v:tabList/>mv</text>			</g>
		</g>
	</g>
</svg>
