<?xml version="1.0" encoding="UTF-8" standalone="no"?>
<!DOCTYPE svg PUBLIC "-//W3C//DTD SVG 1.1//EN" "http://www.w3.org/Graphics/SVG/1.1/DTD/svg11.dtd">
<!-- 由 Microsoft Visio, SVG Export 生成 绘图9.svg 页-1 -->
<svg xmlns="http://www.w3.org/2000/svg" xmlns:xlink="http://www.w3.org/1999/xlink" xmlns:ev="http://www.w3.org/2001/xml-events"
		xmlns:v="http://schemas.microsoft.com/visio/2003/SVGExtensions/" width="8.62545in" height="2.19055in"
		viewBox="0 0 621.032 157.72" xml:space="preserve" color-interpolation-filters="sRGB" class="st10">
	<v:documentProperties v:langID="2052" v:metric="true" v:viewMarkup="false"/>

	<style type="text/css">
	<![CDATA[
		.st1 {fill:none;stroke:#000000;stroke-width:0.249999}
		.st2 {fill:#00b0f0;font-family:Calibri;font-size:0.833336em}
		.st3 {fill:#000000;font-size:1em}
		.st4 {fill:#ff79b6;stroke:none;stroke-width:0.249999}
		.st5 {fill:#feffff;font-family:Calibri;font-size:0.833336em}
		.st6 {fill:#00b0f0;stroke:none;stroke-width:0.249999}
		.st7 {marker-end:url(#mrkr5-67);stroke:#000000;stroke-linecap:round;stroke-linejoin:round;stroke-width:0.249999}
		.st8 {fill:#000000;fill-opacity:1;stroke:#000000;stroke-opacity:1;stroke-width:0.090252499345937}
		.st9 {fill:#ffffff;stroke:none;stroke-linecap:butt}
		.st10 {fill:none;fill-rule:evenodd;font-size:12px;overflow:visible;stroke-linecap:square;stroke-miterlimit:3}
	]]>
	</style>

	<defs id="Markers">
		<g id="lend5">
			<path d="M 2 1 L 0 0 L 1.98117 -0.993387 C 1.67173 -0.364514 1.67301 0.372642 1.98465 1.00043 " style="stroke:none"/>
		</g>
		<marker id="mrkr5-67" class="st8" v:arrowType="5" v:arrowSize="2" v:setback="0" refX="-0" orient="auto"
				markerUnits="strokeWidth" overflow="visible">
			<use xlink:href="#lend5" transform="scale(-11.080025564356,-11.080025564356) "/>
		</marker>
	</defs>
	<g v:mID="0" v:index="1" v:groupContext="foregroundPage">
		<title>页-1</title>
		<v:pageProperties v:drawingScale="0.0393701" v:pageScale="0.0393701" v:drawingUnits="24" v:shadowOffsetX="8.99998"
				v:shadowOffsetY="-8.99998"/>
		<v:layer v:name="Connector" v:index="0"/>
		<g id="group1-1" transform="translate(165.436,-0.249999)" v:mID="1" v:groupContext="group">
			<title>工作表.87</title>
			<g id="shape2-2" v:mID="2" v:groupContext="shape" transform="translate(9.56108,-8.68752)">
				<title>Rectangle.82</title>
				<desc>ispostv2 (ispostv2)</desc>
				<v:userDefs>
					<v:ud v:nameU="visVersion" v:val="VT0(15):26"/>
				</v:userDefs>
				<v:textBlock v:margins="rect(3.99999,3.99999,3.99999,3.99999)"/>
				<v:textRect cx="47.817" cy="125.841" width="95.64" height="63.7574"/>
				<rect x="0" y="93.9622" width="95.6363" height="63.7574" class="st1"/>
				<text x="31.03" y="122.84" class="st2" v:langID="2052"><v:paragraph v:horizAlign="1"/><v:tabList/>ispostv2<v:newlineChar/><tspan
							x="28" dy="1.2em" class="st3">(</tspan><tspan class="st3">ispostv</tspan><tspan class="st3">2</tspan><tspan
							class="st3">)</tspan></text>			</g>
			<g id="shape3-9" v:mID="3" v:groupContext="shape" transform="translate(88.243,-35.5178)">
				<title>Rectangle.83</title>
				<desc>ss0</desc>
				<v:userDefs>
					<v:ud v:nameU="visVersion" v:val="VT0(15):26"/>
				</v:userDefs>
				<v:textBlock v:margins="rect(3.99999,3.99999,3.99999,3.99999)" v:tabSpace="42.5196"/>
				<v:textRect cx="13.1184" cy="152.672" width="26.24" height="10.096"/>
				<path d="M0 153.22 A4.50009 4.50009 -180 0 0 4.5 157.72 L21.74 157.72 A4.50009 4.50009 -180 0 0 26.24 153.22 L26.24
							 152.12 A4.50009 4.50009 -180 0 0 21.74 147.62 L4.5 147.62 A4.50009 4.50009 -180 0 0 0 152.12 L0 153.22
							 Z" class="st4"/>
				<text x="6.67" y="155.67" class="st5" v:langID="2052"><v:paragraph v:horizAlign="1"/><v:tabList/>ss0</text>			</g>
			<g id="shape4-12" v:mID="4" v:groupContext="shape" transform="translate(88.243,-18.3456)">
				<title>Rectangle.84</title>
				<desc>ss1</desc>
				<v:userDefs>
					<v:ud v:nameU="visVersion" v:val="VT0(15):26"/>
				</v:userDefs>
				<v:textBlock v:margins="rect(3.99999,3.99999,3.99999,3.99999)" v:tabSpace="42.5196"/>
				<v:textRect cx="13.1184" cy="152.672" width="26.24" height="10.096"/>
				<path d="M0 153.22 A4.50009 4.50009 -180 0 0 4.5 157.72 L21.74 157.72 A4.50009 4.50009 -180 0 0 26.24 153.22 L26.24
							 152.12 A4.50009 4.50009 -180 0 0 21.74 147.62 L4.5 147.62 A4.50009 4.50009 -180 0 0 0 152.12 L0 153.22
							 Z" class="st4"/>
				<text x="6.67" y="155.67" class="st5" v:langID="2052"><v:paragraph v:horizAlign="1"/><v:tabList/>ss1</text>			</g>
			<g id="shape5-15" v:mID="5" v:groupContext="shape" transform="translate(88.243,-51.9316)">
				<title>Rectangle.85</title>
				<desc>uo</desc>
				<v:userDefs>
					<v:ud v:nameU="visVersion" v:val="VT0(15):26"/>
				</v:userDefs>
				<v:textBlock v:margins="rect(3.99999,3.99999,3.99999,3.99999)" v:tabSpace="42.5196"/>
				<v:textRect cx="13.1184" cy="152.672" width="26.24" height="10.096"/>
				<path d="M0 153.22 A4.50009 4.50009 -180 0 0 4.5 157.72 L21.74 157.72 A4.50009 4.50009 -180 0 0 26.24 153.22 L26.24
							 152.12 A4.50009 4.50009 -180 0 0 21.74 147.62 L4.5 147.62 A4.50009 4.50009 -180 0 0 0 152.12 L0 153.22
							 Z" class="st4"/>
				<text x="7.85" y="155.67" class="st5" v:langID="2052"><v:paragraph v:horizAlign="1"/><v:tabList/>uo</text>			</g>
			<g id="shape6-18" v:mID="6" v:groupContext="shape" transform="translate(-1.15907E-13,-35.5178)">
				<title>Rectangle.86</title>
				<desc>in</desc>
				<v:userDefs>
					<v:ud v:nameU="visVersion" v:val="VT0(15):26"/>
				</v:userDefs>
				<v:textBlock v:margins="rect(3.99999,3.99999,3.99999,3.99999)" v:tabSpace="42.5196"/>
				<v:textRect cx="13.1184" cy="152.672" width="26.24" height="10.096"/>
				<path d="M0 153.22 A4.50009 4.50009 -180 0 0 4.5 157.72 L21.74 157.72 A4.50009 4.50009 -180 0 0 26.24 153.22 L26.24
							 152.12 A4.50009 4.50009 -180 0 0 21.74 147.62 L4.5 147.62 A4.50009 4.50009 -180 0 0 0 152.12 L0 153.22
							 Z" class="st6"/>
				<text x="9.34" y="155.67" class="st5" v:langID="2052"><v:paragraph v:horizAlign="1"/><v:tabList/>in</text>			</g>
			<g id="shape7-21" v:mID="7" v:groupContext="shape" transform="translate(-125.782,103.229) rotate(-90)">
				<title>Rectangle.87</title>
				<desc>ov0</desc>
				<v:userDefs>
					<v:ud v:nameU="visVersion" v:val="VT0(15):26"/>
				</v:userDefs>
				<v:textBlock v:margins="rect(3.99999,3.99999,3.99999,3.99999)" v:tabSpace="42.5196"/>
				<v:textRect cx="13.1184" cy="152.672" width="26.24" height="10.096"/>
				<path d="M0 153.22 A4.50009 4.50009 -180 0 0 4.5 157.72 L21.74 157.72 A4.50009 4.50009 -180 0 0 26.24 153.22 L26.24
							 152.12 A4.50009 4.50009 -180 0 0 21.74 147.62 L4.5 147.62 A4.50009 4.50009 -180 0 0 0 152.12 L0 153.22
							 Z" class="st6"/>
				<text x="5.69" y="155.67" class="st5" v:langID="2052"><v:paragraph v:horizAlign="1"/><v:tabList/>ov0</text>			</g>
			<g id="shape8-24" v:mID="8" v:groupContext="shape" transform="translate(-75.9437,103.229) rotate(-90)">
				<title>Rectangle.89</title>
				<desc>ov3</desc>
				<v:userDefs>
					<v:ud v:nameU="visVersion" v:val="VT0(15):26"/>
				</v:userDefs>
				<v:textBlock v:margins="rect(3.99999,3.99999,3.99999,3.99999)" v:tabSpace="42.5196"/>
				<v:textRect cx="13.1184" cy="152.672" width="26.24" height="10.096"/>
				<path d="M0 153.22 A4.50009 4.50009 -180 0 0 4.5 157.72 L21.74 157.72 A4.50009 4.50009 -180 0 0 26.24 153.22 L26.24
							 152.12 A4.50009 4.50009 -180 0 0 21.74 147.62 L4.5 147.62 A4.50009 4.50009 -180 0 0 0 152.12 L0 153.22
							 Z" class="st6"/>
				<text x="5.69" y="155.67" class="st5" v:langID="2052"><v:paragraph v:horizAlign="1"/><v:tabList/>ov3</text>			</g>
			<g id="shape9-27" v:mID="9" v:groupContext="shape" transform="translate(-109.169,103.229) rotate(-90)">
				<title>Rectangle.90</title>
				<desc>ov1</desc>
				<v:userDefs>
					<v:ud v:nameU="visVersion" v:val="VT0(15):26"/>
				</v:userDefs>
				<v:textBlock v:margins="rect(3.99999,3.99999,3.99999,3.99999)" v:tabSpace="42.5196"/>
				<v:textRect cx="13.1184" cy="152.672" width="26.24" height="10.096"/>
				<path d="M0 153.22 A4.50009 4.50009 -180 0 0 4.5 157.72 L21.74 157.72 A4.50009 4.50009 -180 0 0 26.24 153.22 L26.24
							 152.12 A4.50009 4.50009 -180 0 0 21.74 147.62 L4.5 147.62 A4.50009 4.50009 -180 0 0 0 152.12 L0 153.22
							 Z" class="st6"/>
				<text x="5.69" y="155.67" class="st5" v:langID="2052"><v:paragraph v:horizAlign="1"/><v:tabList/>ov1</text>			</g>
			<g id="shape10-30" v:mID="10" v:groupContext="shape" transform="translate(-92.5564,103.229) rotate(-90)">
				<title>Rectangle.91</title>
				<desc>ov2</desc>
				<v:userDefs>
					<v:ud v:nameU="visVersion" v:val="VT0(15):26"/>
				</v:userDefs>
				<v:textBlock v:margins="rect(3.99999,3.99999,3.99999,3.99999)" v:tabSpace="42.5196"/>
				<v:textRect cx="13.1184" cy="152.672" width="26.24" height="10.096"/>
				<path d="M0 153.22 A4.50009 4.50009 -180 0 0 4.5 157.72 L21.74 157.72 A4.50009 4.50009 -180 0 0 26.24 153.22 L26.24
							 152.12 A4.50009 4.50009 -180 0 0 21.74 147.62 L4.5 147.62 A4.50009 4.50009 -180 0 0 0 152.12 L0 153.22
							 Z" class="st6"/>
				<text x="5.69" y="155.67" class="st5" v:langID="2052"><v:paragraph v:horizAlign="1"/><v:tabList/>ov2</text>			</g>
			<g id="shape11-33" v:mID="11" v:groupContext="shape" transform="translate(-125.782,157.72) rotate(-90)">
				<title>Rectangle.92</title>
				<desc>ov4</desc>
				<v:userDefs>
					<v:ud v:nameU="visVersion" v:val="VT0(15):26"/>
				</v:userDefs>
				<v:textBlock v:margins="rect(3.99999,3.99999,3.99999,3.99999)"/>
				<v:textRect cx="13.1184" cy="152.672" width="26.24" height="10.096"/>
				<path d="M0 153.22 A4.50009 4.50009 -180 0 0 4.5 157.72 L21.74 157.72 A4.50009 4.50009 -180 0 0 26.24 153.22 L26.24
							 152.12 A4.50009 4.50009 -180 0 0 21.74 147.62 L4.5 147.62 A4.50009 4.50009 -180 0 0 -0 152.12 L0 153.22
							 Z" class="st6"/>
				<text x="5.69" y="155.67" class="st5" v:langID="2052"><v:paragraph v:horizAlign="1"/><v:tabList/>ov4</text>			</g>
			<g id="shape12-36" v:mID="12" v:groupContext="shape" transform="translate(-75.9437,157.72) rotate(-90)">
				<title>Rectangle.93</title>
				<desc>ov7</desc>
				<v:userDefs>
					<v:ud v:nameU="visVersion" v:val="VT0(15):26"/>
				</v:userDefs>
				<v:textBlock v:margins="rect(3.99999,3.99999,3.99999,3.99999)" v:tabSpace="42.5196"/>
				<v:textRect cx="13.1184" cy="152.672" width="26.24" height="10.096"/>
				<path d="M0 153.22 A4.50009 4.50009 -180 0 0 4.5 157.72 L21.74 157.72 A4.50009 4.50009 -180 0 0 26.24 153.22 L26.24
							 152.12 A4.50009 4.50009 -180 0 0 21.74 147.62 L4.5 147.62 A4.50009 4.50009 -180 0 0 0 152.12 L0 153.22
							 Z" class="st6"/>
				<text x="5.69" y="155.67" class="st5" v:langID="2052"><v:paragraph v:horizAlign="1"/><v:tabList/>ov7</text>			</g>
			<g id="shape13-39" v:mID="13" v:groupContext="shape" transform="translate(-109.169,157.72) rotate(-90)">
				<title>Rectangle.94</title>
				<desc>ov5</desc>
				<v:userDefs>
					<v:ud v:nameU="visVersion" v:val="VT0(15):26"/>
				</v:userDefs>
				<v:textBlock v:margins="rect(3.99999,3.99999,3.99999,3.99999)"/>
				<v:textRect cx="13.1184" cy="152.672" width="26.24" height="10.096"/>
				<path d="M0 153.22 A4.50009 4.50009 -180 0 0 4.5 157.72 L21.74 157.72 A4.50009 4.50009 -180 0 0 26.24 153.22 L26.24
							 152.12 A4.50009 4.50009 -180 0 0 21.74 147.62 L4.5 147.62 A4.50009 4.50009 -180 0 0 -0 152.12 L0 153.22
							 Z" class="st6"/>
				<text x="5.69" y="155.67" class="st5" v:langID="2052"><v:paragraph v:horizAlign="1"/><v:tabList/>ov5</text>			</g>
			<g id="shape14-42" v:mID="14" v:groupContext="shape" transform="translate(-92.5564,157.72) rotate(-90)">
				<title>Rectangle.95</title>
				<desc>ov6</desc>
				<v:userDefs>
					<v:ud v:nameU="visVersion" v:val="VT0(15):26"/>
				</v:userDefs>
				<v:textBlock v:margins="rect(3.99999,3.99999,3.99999,3.99999)" v:tabSpace="42.5196"/>
				<v:textRect cx="13.1184" cy="152.672" width="26.24" height="10.096"/>
				<path d="M0 153.22 A4.50009 4.50009 -180 0 0 4.5 157.72 L21.74 157.72 A4.50009 4.50009 -180 0 0 26.24 153.22 L26.24
							 152.12 A4.50009 4.50009 -180 0 0 21.74 147.62 L4.5 147.62 A4.50009 4.50009 -180 0 0 0 152.12 L0 153.22
							 Z" class="st6"/>
				<text x="5.69" y="155.67" class="st5" v:langID="2052"><v:paragraph v:horizAlign="1"/><v:tabList/>ov6</text>			</g>
		</g>
		<g id="group15-45" transform="translate(0.385653,-8.7777)" v:mID="15" v:groupContext="group">
			<title>工作表.101</title>
			<g id="shape16-46" v:mID="16" v:groupContext="shape">
				<title>Rectangle.63</title>
				<desc>isp (v2500)</desc>
				<v:userDefs>
					<v:ud v:nameU="visVersion" v:val="VT0(15):26"/>
				</v:userDefs>
				<v:textBlock v:margins="rect(3.99999,3.99999,3.99999,3.99999)"/>
				<v:textRect cx="47.7549" cy="125.882" width="95.52" height="63.6746"/>
				<rect x="0" y="94.045" width="95.512" height="63.6746" class="st1"/>
				<text x="42.02" y="122.88" class="st2" v:langID="2052"><v:paragraph v:horizAlign="1"/><v:tabList/>isp<v:lf/><tspan
							x="32.33" dy="1.2em" class="st3">(</tspan><tspan class="st3">v</tspan><tspan class="st3">2500</tspan><tspan
							class="st3">)</tspan></text>			</g>
			<g id="shape17-53" v:mID="17" v:groupContext="shape" transform="translate(78.1091,-26.7955)">
				<title>Rectangle.64</title>
				<desc>his</desc>
				<v:userDefs>
					<v:ud v:nameU="visVersion" v:val="VT0(15):26"/>
				</v:userDefs>
				<v:textBlock v:margins="rect(3.99999,3.99999,3.99999,3.99999)" v:tabSpace="42.5196"/>
				<v:textRect cx="13.1014" cy="152.678" width="26.21" height="10.0829"/>
				<path d="M0 153.22 A4.50009 4.50009 -180 0 0 4.5 157.72 L21.7 157.72 A4.50009 4.50009 -180 0 0 26.2 153.22 L26.2
							 152.14 A4.50009 4.50009 -180 0 0 21.7 147.64 L4.5 147.64 A4.50009 4.50009 -180 0 0 -0 152.14 L0 153.22
							 Z" class="st4"/>
				<text x="7.37" y="155.68" class="st5" v:langID="2052"><v:paragraph v:horizAlign="1"/><v:tabList/>his</text>			</g>
			<g id="shape18-56" v:mID="18" v:groupContext="shape" transform="translate(78.1091,-9.64557)">
				<title>Rectangle.65</title>
				<desc>cap</desc>
				<v:userDefs>
					<v:ud v:nameU="visVersion" v:val="VT0(15):26"/>
				</v:userDefs>
				<v:textBlock v:margins="rect(3.99999,3.99999,3.99999,3.99999)" v:tabSpace="42.5196"/>
				<v:textRect cx="13.1014" cy="152.678" width="26.21" height="10.0829"/>
				<path d="M0 153.22 A4.50009 4.50009 -180 0 0 4.5 157.72 L21.7 157.72 A4.50009 4.50009 -180 0 0 26.2 153.22 L26.2
							 152.14 A4.50009 4.50009 -180 0 0 21.7 147.64 L4.5 147.64 A4.50009 4.50009 -180 0 0 -0 152.14 L0 153.22
							 Z" class="st4"/>
				<text x="5.97" y="155.68" class="st5" v:langID="2052"><v:paragraph v:horizAlign="1"/><v:tabList/>cap</text>			</g>
			<g id="shape19-59" v:mID="19" v:groupContext="shape" transform="translate(78.1091,-43.188)">
				<title>Rectangle.66</title>
				<desc>out</desc>
				<v:userDefs>
					<v:ud v:nameU="visVersion" v:val="VT0(15):26"/>
				</v:userDefs>
				<v:textBlock v:margins="rect(3.99999,3.99999,3.99999,3.99999)" v:tabSpace="42.5196"/>
				<v:textRect cx="13.1014" cy="152.678" width="26.21" height="10.0829"/>
				<path d="M0 153.22 A4.50009 4.50009 -180 0 0 4.5 157.72 L21.7 157.72 A4.50009 4.50009 -180 0 0 26.2 153.22 L26.2
							 152.14 A4.50009 4.50009 -180 0 0 21.7 147.64 L4.5 147.64 A4.50009 4.50009 -180 0 0 -0 152.14 L0 153.22
							 Z" class="st4"/>
				<text x="6.16" y="155.68" class="st5" v:langID="2052"><v:paragraph v:horizAlign="1"/><v:tabList/>out</text>			</g>
		</g>
		<g id="shape20-62" v:mID="20" v:groupContext="shape" v:layerMember="0" transform="translate(104.7,-40.8671)">
			<title>Dynamic connector.106</title>
			<path d="M0 141.58 C10.28 141.58 10.62 156.71 55.89 157.72 L56.25 157.72 L60.74 157.72" class="st7"/>
		</g>
		<g id="shape26-68" v:mID="26" v:groupContext="shape" v:layerMember="0" transform="translate(279.917,-40.6696)">
			<title>Dynamic connector.112</title>
			<desc>1080p</desc>
			<v:userDefs/>
			<v:textBlock v:margins="rect(3.99999,3.99999,3.99999,3.99999)"/>
			<v:textRect cx="28.8418" cy="154.532" width="50" height="20.0035"/>
			<path d="M0 141.16 C10.28 141.16 10.62 156.69 55.89 157.72 L56.25 157.72 L60.74 157.72" class="st7"/>
			<rect v:rectContext="textBkgnd" x="16.0784" y="148.532" width="25.527" height="12.0001" class="st9"/>
			<text x="16.08" y="157.53" class="st2" v:langID="2052"><v:paragraph v:horizAlign="1"/><v:tabList/>1080p</text>		</g>
		<g id="group27-75" transform="translate(515.722,-8.7777)" v:mID="27" v:groupContext="group">
			<title>工作表.113</title>
			<g id="shape28-76" v:mID="28" v:groupContext="shape" transform="translate(9.54867,0)">
				<title>Rectangle</title>
				<desc>filesink (filesink)</desc>
				<v:userDefs>
					<v:ud v:nameU="visVersion" v:val="VT0(15):26"/>
				</v:userDefs>
				<v:textBlock v:margins="rect(3.99999,3.99999,3.99999,3.99999)" v:tabSpace="42.5196"/>
				<v:textRect cx="47.7549" cy="125.882" width="95.52" height="63.6746"/>
				<rect x="0" y="94.045" width="95.512" height="63.6746" class="st1"/>
				<text x="33.44" y="122.88" class="st2" v:langID="2052"><v:paragraph v:horizAlign="1"/><v:tabList/>filesink<v:newlineChar/><tspan
							x="30.41" dy="1.2em" class="st3">(</tspan><tspan class="st3">filesink</tspan><tspan class="st3">)</tspan></text>			</g>
			<g id="shape29-82" v:mID="29" v:groupContext="shape" transform="translate(2.79776E-14,-26.7955)">
				<title>Rectangle.2</title>
				<desc>in</desc>
				<v:userDefs>
					<v:ud v:nameU="visVersion" v:val="VT0(15):26"/>
				</v:userDefs>
				<v:textBlock v:margins="rect(3.99999,3.99999,3.99999,3.99999)" v:tabSpace="42.5196"/>
				<v:textRect cx="13.1014" cy="152.678" width="26.21" height="10.0829"/>
				<path d="M0 153.22 A4.50009 4.50009 -180 0 0 4.5 157.72 L21.7 157.72 A4.50009 4.50009 -180 0 0 26.2 153.22 L26.2
							 152.14 A4.50009 4.50009 -180 0 0 21.7 147.64 L4.5 147.64 A4.50009 4.50009 -180 0 0 -0 152.14 L0 153.22
							 Z" class="st6"/>
				<text x="9.33" y="155.68" class="st5" v:langID="2052"><v:paragraph v:horizAlign="1"/><v:tabList/>in</text>			</g>
		</g>
		<g id="shape30-85" v:mID="30" v:groupContext="shape" v:layerMember="0" transform="translate(454.987,-40.5305)">
			<title>Dynamic connector.116</title>
			<path d="M0 143.39 C10.28 143.39 10.62 156.7 55.89 157.58 L56.25 157.59 L60.74 157.72" class="st7"/>
		</g>
		<g id="group31-90" transform="translate(0.249999,-93.7122)" v:mID="31" v:groupContext="group">
			<title>工作表.117</title>
			<g id="shape32-91" v:mID="32" v:groupContext="shape">
				<title>Rectangle.26</title>
				<desc>marker (marker)</desc>
				<v:userDefs>
					<v:ud v:nameU="visVersion" v:val="VT0(15):26"/>
				</v:userDefs>
				<v:textBlock v:margins="rect(3.99999,3.99999,3.99999,3.99999)" v:tabSpace="42.5196"/>
				<v:textRect cx="47.817" cy="125.841" width="95.64" height="63.7574"/>
				<rect x="0" y="93.9622" width="95.6363" height="63.7574" class="st1"/>
				<text x="33.18" y="122.84" class="st2" v:langID="2052"><v:paragraph v:horizAlign="1"/><v:tabList/>marker<v:newlineChar/><tspan
							x="30.15" dy="1.2em" class="st3">(</tspan><tspan class="st3">marker</tspan><tspan class="st3">)</tspan></text>			</g>
			<g id="shape33-97" v:mID="33" v:groupContext="shape" transform="translate(78.2107,-26.8302)">
				<title>Rectangle.27</title>
				<desc>out</desc>
				<v:userDefs>
					<v:ud v:nameU="visVersion" v:val="VT0(15):26"/>
				</v:userDefs>
				<v:textBlock v:margins="rect(3.99999,3.99999,3.99999,3.99999)" v:tabSpace="42.5196"/>
				<v:textRect cx="13.1184" cy="152.672" width="26.24" height="10.096"/>
				<path d="M0 153.22 A4.50009 4.50009 -180 0 0 4.5 157.72 L21.74 157.72 A4.50009 4.50009 -180 0 0 26.24 153.22 L26.24
							 152.12 A4.50009 4.50009 -180 0 0 21.74 147.62 L4.5 147.62 A4.50009 4.50009 -180 0 0 -0 152.12 L0 153.22
							 Z" class="st4"/>
				<text x="6.18" y="155.67" class="st5" v:langID="2052"><v:paragraph v:horizAlign="1"/><v:tabList/>out</text>			</g>
		</g>
		<g id="shape34-100" v:mID="34" v:groupContext="shape" v:layerMember="0" transform="translate(104.7,-80.9833)">
			<title>Dynamic connector.120</title>
			<path d="M0 113.11 C21.91 113.11 57.49 113.11 73.81 122.92 C85.71 130.08 87.36 142.45 87.59 152.87 L87.59 153.23 L87.59
						 157.72" class="st7"/>
		</g>
		<g id="group35-105" transform="translate(340.653,-8.7777)" v:mID="35" v:groupContext="group">
			<title>工作表.35</title>
			<g id="shape22-106" v:mID="22" v:groupContext="shape" transform="translate(9.54867,0)">
				<title>Rectangle.123</title>
				<desc>h1264 (h1264)</desc>
				<v:userDefs>
					<v:ud v:nameU="visVersion" v:val="VT0(15):26"/>
				</v:userDefs>
				<v:textBlock v:margins="rect(3.99999,3.99999,3.99999,3.99999)" v:tabSpace="42.5196"/>
				<v:textRect cx="47.7549" cy="125.882" width="95.52" height="63.6746"/>
				<rect x="0" y="94.045" width="95.512" height="63.6746" class="st1"/>
				<text x="34.99" y="122.88" class="st2" v:langID="2052"><v:paragraph v:horizAlign="1"/><v:tabList/>h1264<v:newlineChar/><tspan
							x="25.74" dy="1.2em" class="st3">(</tspan><tspan class="st3">vencoder</tspan><tspan class="st3">)</tspan></text>			</g>
			<g id="shape23-112" v:mID="23" v:groupContext="shape" transform="translate(76.6452,-41.0461)">
				<title>Rectangle.124</title>
				<desc>stream</desc>
				<v:userDefs>
					<v:ud v:nameU="visVersion" v:val="VT0(15):26"/>
				</v:userDefs>
				<v:textBlock v:margins="rect(3.99999,3.99999,3.99999,3.99999)" v:tabSpace="42.5196"/>
				<v:textRect cx="18.843" cy="152.678" width="37.69" height="10.0829"/>
				<path d="M0 153.22 A4.50009 4.50009 -180 0 0 4.5 157.72 L33.19 157.72 A4.50009 4.50009 -180 0 0 37.69 153.22 L37.69
							 152.14 A4.50009 4.50009 -180 0 0 33.19 147.64 L4.5 147.64 A4.50009 4.50009 -180 0 0 0 152.14 L0 153.22
							 Z" class="st4"/>
				<text x="4.59" y="155.68" class="st5" v:langID="2052"><v:paragraph v:horizAlign="1"/><v:tabList/>stream</text>			</g>
			<g id="shape24-115" v:mID="24" v:groupContext="shape" transform="translate(1.9984E-14,-26.7955)">
				<title>Rectangle.125</title>
				<desc>frame</desc>
				<v:userDefs>
					<v:ud v:nameU="visVersion" v:val="VT0(15):26"/>
				</v:userDefs>
				<v:textBlock v:margins="rect(3.99999,3.99999,3.99999,3.99999)" v:tabSpace="42.5196"/>
				<v:textRect cx="18.843" cy="152.678" width="37.69" height="10.0829"/>
				<path d="M0 153.22 A4.50009 4.50009 -180 0 0 4.5 157.72 L33.19 157.72 A4.50009 4.50009 -180 0 0 37.69 153.22 L37.69
							 152.14 A4.50009 4.50009 -180 0 0 33.19 147.64 L4.5 147.64 A4.50009 4.50009 -180 0 0 -0 152.14 L0 153.22
							 Z" class="st6"/>
				<text x="6.7" y="155.68" class="st5" v:langID="2052"><v:paragraph v:horizAlign="1"/><v:tabList/>frame</text>			</g>
			<g id="shape25-118" v:mID="25" v:groupContext="shape" transform="translate(86.6012,-12.1082)">
				<title>Rectangle.126</title>
				<desc>mv</desc>
				<v:userDefs>
					<v:ud v:nameU="visVersion" v:val="VT0(15):26"/>
				</v:userDefs>
				<v:textBlock v:margins="rect(3.99999,3.99999,3.99999,3.99999)" v:tabSpace="42.5196"/>
				<v:textRect cx="13.865" cy="152.678" width="27.74" height="10.0829"/>
				<path d="M0 153.22 A4.50009 4.50009 -180 0 0 4.5 157.72 L23.23 157.72 A4.50009 4.50009 -180 0 0 27.73 153.22 L27.73
							 152.14 A4.50009 4.50009 -180 0 0 23.23 147.64 L4.5 147.64 A4.50009 4.50009 -180 0 0 0 152.14 L0 153.22
							 Z" class="st4"/>
				<text x="7.61" y="155.68" class="st5" v:langID="2052"><v:paragraph v:horizAlign="1"/><v:tabList/>mv</text>			</g>
		</g>
	</g>
</svg>
