<?xml version="1.0" encoding="UTF-8" standalone="no"?>
<!DOCTYPE svg PUBLIC "-//W3C//DTD SVG 1.1//EN" "http://www.w3.org/Graphics/SVG/1.1/DTD/svg11.dtd">
<!-- 由 Microsoft Visio, SVG Export 生成 Recorder_1.svg 页-2 -->
<svg xmlns="http://www.w3.org/2000/svg" xmlns:xlink="http://www.w3.org/1999/xlink" xmlns:ev="http://www.w3.org/2001/xml-events"
		xmlns:v="http://schemas.microsoft.com/visio/2003/SVGExtensions/" width="7.08507in" height="4.49499in"
		viewBox="0 0 510.125 323.639" xml:space="preserve" color-interpolation-filters="sRGB" class="st5">
	<v:documentProperties v:langID="2052">
		<v:userDefs>
			<v:ud v:nameU="msvSubprocessMaster" v:prompt="" v:val="VT4(Rectangle)"/>
			<v:ud v:nameU="msvNoAutoConnect" v:val="VT0(1):26"/>
		</v:userDefs>
	</v:documentProperties>

	<style type="text/css">
	<![CDATA[
		.st1 {fill:#00b0f0;stroke:#00b0f0;stroke-width:0.25}
		.st2 {fill:#ffffff;font-family:等线;font-size:0.833336em}
		.st3 {fill:none;stroke:#000000;stroke-dasharray:0.01,1.25;stroke-width:0.25}
		.st4 {fill:#00b0f0;font-family:等线;font-size:0.833336em}
		.st5 {fill:none;fill-rule:evenodd;font-size:12px;overflow:visible;stroke-linecap:square;stroke-miterlimit:3}
	]]>
	</style>

	<g v:mID="0" v:index="1" v:groupContext="foregroundPage">
		<v:userDefs>
			<v:ud v:nameU="msvThemeOrder" v:val="VT0(0):26"/>
		</v:userDefs>
		<title>页-2</title>
		<v:pageProperties v:drawingScale="0.0393701" v:pageScale="0.0393701" v:drawingUnits="24" v:shadowOffsetX="9"
				v:shadowOffsetY="-9"/>
		<v:layer v:name="Connector" v:index="0"/>
		<g id="shape1-1" v:mID="1" v:groupContext="shape" transform="translate(55.0274,-46.4776)">
			<title>Rectangle.7</title>
			<desc>videobox</desc>
			<v:userDefs>
				<v:ud v:nameU="visVersion" v:val="VT0(15):26"/>
			</v:userDefs>
			<v:textBlock v:margins="rect(4,4,4,4)" v:tabSpace="42.5197"/>
			<v:textRect cx="35.7143" cy="308.14" width="71.44" height="30.9987"/>
			<rect x="0" y="292.641" width="71.4287" height="30.9987" class="st1"/>
			<text x="16.02" y="311.14" class="st2" v:langID="2052"><v:paragraph v:horizAlign="1"/><v:tabList/>videobox</text>		</g>
		<g id="shape2-4" v:mID="2" v:groupContext="shape" transform="translate(220.838,-46.4776)">
			<title>Rectangle.8</title>
			<desc>audiobox</desc>
			<v:userDefs>
				<v:ud v:nameU="visVersion" v:val="VT0(15):26"/>
			</v:userDefs>
			<v:textBlock v:margins="rect(4,4,4,4)" v:tabSpace="42.5197"/>
			<v:textRect cx="35.7143" cy="308.14" width="71.44" height="30.9987"/>
			<rect x="0" y="292.641" width="71.4287" height="30.9987" class="st1"/>
			<text x="15.66" y="311.14" class="st2" v:langID="2052"><v:paragraph v:horizAlign="1"/><v:tabList/>audiobox</text>		</g>
		<g id="shape3-7" v:mID="3" v:groupContext="shape" transform="translate(386.648,-46.4776)">
			<title>Rectangle.11</title>
			<desc>...</desc>
			<v:userDefs>
				<v:ud v:nameU="visVersion" v:val="VT0(15):26"/>
			</v:userDefs>
			<v:textBlock v:margins="rect(4,4,4,4)" v:tabSpace="42.5197"/>
			<v:textRect cx="35.7143" cy="308.14" width="71.44" height="30.9987"/>
			<rect x="0" y="292.641" width="71.4287" height="30.9987" class="st1"/>
			<text x="32.43" y="311.14" class="st2" v:langID="2052"><v:paragraph v:horizAlign="1"/><v:tabList/>...</text>		</g>
		<g id="shape4-10" v:mID="4" v:groupContext="shape" transform="translate(39.8912,-29.5877)">
			<title>Rectangle.12</title>
			<desc>Midware</desc>
			<v:userDefs>
				<v:ud v:nameU="visVersion" v:val="VT0(15):26"/>
			</v:userDefs>
			<v:textBlock v:margins="rect(4,4,4,4)" v:verticalAlign="0"/>
			<v:textRect cx="216.058" cy="252.982" width="432.13" height="141.311"/>
			<path d="M0 323.64 L432.12 323.64 L432.12 182.33 L0 182.33 L0 323.64 Z" class="st3"/>
			<text x="4" y="195.33" class="st4" v:langID="2052"><v:paragraph/><v:tabList/>Midware</text>		</g>
		<g id="shape5-13" v:mID="5" v:groupContext="shape" transform="translate(55.0274,-122.821)">
			<title>Rectangle.13</title>
			<desc>FFMPEG</desc>
			<v:userDefs>
				<v:ud v:nameU="visVersion" v:val="VT0(15):26"/>
			</v:userDefs>
			<v:textBlock v:margins="rect(4,4,4,4)" v:tabSpace="42.5197"/>
			<v:textRect cx="35.7143" cy="308.14" width="71.44" height="30.9987"/>
			<rect x="0" y="292.641" width="71.4287" height="30.9987" class="st1"/>
			<text x="18.43" y="311.14" class="st2" v:langID="2052"><v:paragraph v:horizAlign="1"/><v:tabList/>FFmpeg</text>		</g>
		<g id="shape6-16" v:mID="6" v:groupContext="shape" transform="translate(219.831,-122.821)">
			<title>Rectangle.15</title>
			<desc>recorder</desc>
			<v:userDefs>
				<v:ud v:nameU="visVersion" v:val="VT0(15):26"/>
			</v:userDefs>
			<v:textBlock v:margins="rect(4,4,4,4)" v:tabSpace="42.5197"/>
			<v:textRect cx="35.7143" cy="308.14" width="71.44" height="30.9987"/>
			<rect x="0" y="292.641" width="71.4287" height="30.9987" class="st1"/>
			<text x="17.49" y="311.14" class="st2" v:langID="2052"><v:paragraph v:horizAlign="1"/><v:tabList/>recorder</text>		</g>
		<g id="shape7-19" v:mID="7" v:groupContext="shape" transform="translate(386.648,-122.821)">
			<title>Rectangle.16</title>
			<desc>eventhub</desc>
			<v:userDefs>
				<v:ud v:nameU="visVersion" v:val="VT0(15):26"/>
			</v:userDefs>
			<v:textBlock v:margins="rect(4,4,4,4)" v:tabSpace="42.5197"/>
			<v:textRect cx="35.7143" cy="308.14" width="71.44" height="30.9987"/>
			<rect x="0" y="292.641" width="71.4287" height="30.9987" class="st1"/>
			<text x="15.53" y="311.14" class="st2" v:langID="2052"><v:paragraph v:horizAlign="1"/><v:tabList/>eventhub</text>		</g>
		<g id="shape8-22" v:mID="8" v:groupContext="shape" transform="translate(40.4941,-190.927)">
			<title>Rectangle.23</title>
			<desc>API</desc>
			<v:userDefs>
				<v:ud v:nameU="visVersion" v:val="VT0(15):26"/>
			</v:userDefs>
			<v:textBlock v:margins="rect(4,4,4,4)" v:tabSpace="42.5197"/>
			<v:textRect cx="216.058" cy="313.533" width="432.13" height="20.2114"/>
			<rect x="0" y="303.428" width="432.116" height="20.2114" class="st1"/>
			<text x="208.88" y="316.53" class="st2" v:langID="2052"><v:paragraph v:horizAlign="1"/><v:tabList/>API</text>		</g>
		<g id="shape9-25" v:mID="9" v:groupContext="shape" transform="translate(19.375,-246.438)">
			<title>Rectangle.24</title>
			<desc>Application</desc>
			<v:userDefs>
				<v:ud v:nameU="visVersion" v:val="VT0(15):26"/>
			</v:userDefs>
			<v:textBlock v:margins="rect(4,4,4,4)" v:verticalAlign="0"/>
			<v:textRect cx="236.25" cy="294.163" width="472.51" height="58.95"/>
			<path d="M0 323.64 L472.5 323.64 L472.5 264.69 L0 264.69 L0 323.64 Z" class="st3"/>
			<text x="4" y="277.69" class="st4" v:langID="2052"><v:paragraph/><v:tabList/>Application</text>		</g>
		<g id="shape10-28" v:mID="10" v:groupContext="shape" transform="translate(18.25,-18.2491)">
			<title>Rectangle.25</title>
			<desc>QSDK</desc>
			<v:userDefs>
				<v:ud v:nameU="visVersion" v:val="VT0(15):26"/>
			</v:userDefs>
			<v:textBlock v:margins="rect(4,4,4,4)" v:verticalAlign="0"/>
			<v:textRect cx="236.25" cy="217.088" width="472.51" height="213.1"/>
			<path d="M0 323.64 L472.5 323.64 L472.5 110.54 L0 110.54 L0 323.64 Z" class="st3"/>
			<text x="4" y="123.54" class="st4" v:langID="2052"><v:paragraph/><v:tabList/>QSDK</text>		</g>
		<g id="shape11-31" v:mID="11" v:groupContext="shape" transform="translate(55.0274,-254.213)">
			<title>Rectangle.26</title>
			<desc>app-launcer</desc>
			<v:userDefs>
				<v:ud v:nameU="visVersion" v:val="VT0(15):26"/>
			</v:userDefs>
			<v:textBlock v:margins="rect(4,4,4,4)" v:tabSpace="42.5197"/>
			<v:textRect cx="35.7143" cy="308.14" width="71.44" height="30.9987"/>
			<rect x="0" y="292.641" width="71.4287" height="30.9987" class="st1"/>
			<text x="9.32" y="311.14" class="st2" v:langID="2052"><v:paragraph v:horizAlign="1"/><v:tabList/>app-launcer</text>		</g>
		<g id="shape12-34" v:mID="12" v:groupContext="shape" transform="translate(220.838,-254.213)">
			<title>Rectangle.27</title>
			<desc>app-d304</desc>
			<v:userDefs>
				<v:ud v:nameU="visVersion" v:val="VT0(15):26"/>
			</v:userDefs>
			<v:textBlock v:margins="rect(4,4,4,4)" v:tabSpace="42.5197"/>
			<v:textRect cx="35.7143" cy="308.14" width="71.44" height="30.9987"/>
			<rect x="0" y="292.641" width="71.4287" height="30.9987" class="st1"/>
			<text x="14.2" y="311.14" class="st2" v:langID="2052"><v:paragraph v:horizAlign="1"/><v:tabList/>app-d304</text>		</g>
		<g id="shape13-37" v:mID="13" v:groupContext="shape" transform="translate(386.648,-254.213)">
			<title>Rectangle.30</title>
			<desc>...</desc>
			<v:userDefs>
				<v:ud v:nameU="visVersion" v:val="VT0(15):26"/>
			</v:userDefs>
			<v:textBlock v:margins="rect(4,4,4,4)" v:tabSpace="42.5197"/>
			<v:textRect cx="35.7143" cy="308.14" width="71.44" height="30.9987"/>
			<rect x="0" y="292.641" width="71.4287" height="30.9987" class="st1"/>
			<text x="32.43" y="311.14" class="st2" v:langID="2052"><v:paragraph v:horizAlign="1"/><v:tabList/>...</text>		</g>
		<g id="shape14-40" v:mID="14" v:groupContext="shape" transform="translate(402.276,72.5845) rotate(89.6482)">
			<title>Simple Double Arrow.33</title>
			<v:userDefs>
				<v:ud v:nameU="visVersion" v:val="VT0(15):26"/>
				<v:ud v:nameU="ArrowType" v:prompt="" v:val="VT0(3):26"/>
			</v:userDefs>
			<path d="M0 311.65 L12 299.65 L12 305.65 L23.3 305.65 L23.3 299.65 L35.3 311.65 L23.3 323.64 L23.3 317.65 L12 317.65
						 L12 323.64 L0 311.65 Z" class="st1"/>
		</g>
		<g id="shape15-42" v:mID="15" v:groupContext="shape" transform="translate(154.308,-125.104)">
			<title>Simple Arrow.38</title>
			<v:userDefs>
				<v:ud v:nameU="visVersion" v:val="VT0(15):26"/>
				<v:ud v:nameU="ArrowType" v:prompt="" v:val="VT0(2):26"/>
			</v:userDefs>
			<path d="M0 311.65 L12 299.65 L12 305.65 L37.67 305.65 L37.67 311.65 L37.67 317.65 L12 317.65 L12 323.64 L0 311.65 Z"
					class="st1"/>
		</g>
		<g id="shape16-44" v:mID="16" v:groupContext="shape" transform="translate(358.796,498.192) rotate(180)">
			<title>Simple Arrow.39</title>
			<v:userDefs>
				<v:ud v:nameU="visVersion" v:val="VT0(15):26"/>
				<v:ud v:nameU="ArrowType" v:prompt="" v:val="VT0(2):26"/>
			</v:userDefs>
			<path d="M0 311.65 L12 299.65 L12 305.65 L39.69 305.65 L39.69 311.65 L39.69 317.65 L12 317.65 L12 323.64 L0 311.65 Z"
					class="st1"/>
		</g>
		<g id="shape17-46" v:mID="17" v:groupContext="shape" transform="translate(334.964,497.889) rotate(153.435)">
			<title>Simple Double Arrow.40</title>
			<v:userDefs>
				<v:ud v:nameU="visVersion" v:val="VT0(15):26"/>
				<v:ud v:nameU="ArrowType" v:prompt="" v:val="VT0(3):26"/>
			</v:userDefs>
			<path d="M0 311.65 L12 299.65 L12 305.65 L35.54 305.65 L35.54 299.65 L47.54 311.65 L35.54 323.64 L35.54 317.65 L12 317.65
						 L12 323.64 L0 311.65 Z" class="st1"/>
		</g>
		<g id="shape18-48" v:mID="18" v:groupContext="shape" transform="translate(568.017,203.558) rotate(89.4799)">
			<title>Simple Double Arrow.41</title>
			<v:userDefs>
				<v:ud v:nameU="visVersion" v:val="VT0(15):26"/>
				<v:ud v:nameU="ArrowType" v:prompt="" v:val="VT0(3):26"/>
			</v:userDefs>
			<path d="M0 311.65 L12 299.65 L12 305.65 L25.67 305.65 L25.67 299.65 L37.67 311.65 L25.67 323.64 L25.67 317.65 L12 317.65
						 L12 323.64 L0 311.65 Z" class="st1"/>
		</g>
		<g id="shape19-50" v:mID="19" v:groupContext="shape" transform="translate(568.086,72.5845) rotate(89.6482)">
			<title>Simple Double Arrow.42</title>
			<v:userDefs>
				<v:ud v:nameU="visVersion" v:val="VT0(15):26"/>
				<v:ud v:nameU="ArrowType" v:prompt="" v:val="VT0(3):26"/>
			</v:userDefs>
			<path d="M0 311.65 L12 299.65 L12 305.65 L23.3 305.65 L23.3 299.65 L35.3 311.65 L23.3 323.64 L23.3 317.65 L12 317.65
						 L12 323.64 L0 311.65 Z" class="st1"/>
		</g>
		<g id="shape20-52" v:mID="20" v:groupContext="shape" transform="translate(568.086,132.112) rotate(89.6482)">
			<title>Simple Double Arrow.43</title>
			<v:userDefs>
				<v:ud v:nameU="visVersion" v:val="VT0(15):26"/>
				<v:ud v:nameU="ArrowType" v:prompt="" v:val="VT0(3):26"/>
			</v:userDefs>
			<path d="M0 311.65 L12 299.65 L12 305.65 L23.3 305.65 L23.3 299.65 L35.3 311.65 L23.3 323.64 L23.3 317.65 L12 317.65
						 L12 323.64 L0 311.65 Z" class="st1"/>
		</g>
		<g id="shape21-54" v:mID="21" v:groupContext="shape" transform="translate(733.897,132.112) rotate(89.6482)">
			<title>Simple Double Arrow.44</title>
			<v:userDefs>
				<v:ud v:nameU="visVersion" v:val="VT0(15):26"/>
				<v:ud v:nameU="ArrowType" v:prompt="" v:val="VT0(3):26"/>
			</v:userDefs>
			<path d="M0 311.65 L12 299.65 L12 305.65 L23.3 305.65 L23.3 299.65 L35.3 311.65 L23.3 323.64 L23.3 317.65 L12 317.65
						 L12 323.64 L0 311.65 Z" class="st1"/>
		</g>
	</g>
</svg>
