<?xml version="1.0" encoding="UTF-8" standalone="no"?>
<!DOCTYPE svg PUBLIC "-//W3C//DTD SVG 1.1//EN" "http://www.w3.org/Graphics/SVG/1.1/DTD/svg11.dtd">
<!-- Generated by Microsoft Visio, SVG Export Drawing1.svg Page-1 -->
<svg xmlns="http://www.w3.org/2000/svg" xmlns:xlink="http://www.w3.org/1999/xlink" xmlns:ev="http://www.w3.org/2001/xml-events"
		xmlns:v="http://schemas.microsoft.com/visio/2003/SVGExtensions/" width="3.02119in" height="0.961718in"
		viewBox="0 0 217.526 69.2437" xml:space="preserve" color-interpolation-filters="sRGB" class="st4">
	<v:documentProperties v:langID="2052" v:metric="true" v:viewMarkup="false"/>

	<style type="text/css">
	<![CDATA[
		.st1 {fill:none}
		.st2 {stroke:#000000;stroke-linecap:round;stroke-linejoin:round;stroke-width:0.25}
		.st3 {stroke:#000000;stroke-width:0.25}
		.st4 {fill:none;fill-rule:evenodd;font-size:12px;overflow:visible;stroke-linecap:square;stroke-miterlimit:3}
	]]>
	</style>

	<g v:mID="0" v:index="1" v:groupContext="foregroundPage">
		<title>Page-1</title>
		<v:pageProperties v:drawingScale="0.0393701" v:pageScale="0.0393701" v:drawingUnits="24" v:shadowOffsetX="8.50393"
				v:shadowOffsetY="-8.50393"/>
		<g id="shape1-1" v:mID="1" v:groupContext="shape" transform="translate(13.2062,-0.25)">
			<title>Sheet.1</title>
			<path d="M0 69.24 L18.98 69.24 L0 69.24 Z" class="st1"/>
			<path d="M0 69.24 L18.98 69.24" class="st2"/>
		</g>
		<g id="shape2-4" v:mID="2" v:groupContext="shape" transform="translate(32.1896,-0.25)">
			<title>Sheet.2</title>
			<path d="M0 69.24 L0 38.31 L18.98 38.31 L18.98 69.24 L28.48 69.24 L28.48 38.31 L47.46 38.31 L47.46 69.24 L56.95 69.24
						 L56.95 38.31 L75.93 38.31 L75.93 69.24 L85.43 69.24 L85.43 38.31 L104.41 38.31 L104.41 69.24 L113.9 69.24
						 L113.9 38.31 L132.88 38.31 L132.88 69.24 L142.38 69.24 L142.38 38.31 L161.36 38.31 L161.36 69.24 L180.34
						 69.24 L0 69.24 Z" class="st1"/>
			<path d="M0 69.24 L0 38.31 L18.98 38.31 L18.98 69.24 L28.48 69.24 L28.48 38.31 L47.46 38.31 L47.46 69.24 L56.95 69.24
						 L56.95 38.31 L75.93 38.31 L75.93 69.24 L85.43 69.24 L85.43 38.31 L104.41 38.31 L104.41 69.24 L113.9 69.24
						 L113.9 38.31 L132.88 38.31 L132.88 69.24 L142.38 69.24 L142.38 38.31 L161.36 38.31 L161.36 69.24 L180.34
						 69.24" class="st3"/>
		</g>
		<g id="shape3-7" v:mID="3" v:groupContext="shape" transform="translate(0.25,-37.9702)">
			<title>Sheet.3</title>
			<path d="M0 69.24 L31.41 69.24 L31.41 38.22 L193.23 38.22 L193.23 69.24 L217.03 69.24 L0 69.24 Z" class="st1"/>
			<path d="M0 69.24 L31.41 69.24 L31.41 38.22 L193.23 38.22 L193.23 69.24 L217.03 69.24" class="st3"/>
		</g>
	</g>
</svg>
