<?xml version="1.0" encoding="UTF-8" standalone="no"?>
<!DOCTYPE svg PUBLIC "-//W3C//DTD SVG 1.1//EN" "http://www.w3.org/Graphics/SVG/1.1/DTD/svg11.dtd">
<!-- 由 Microsoft Visio, SVG Export 生成 v2500.svg 页-1 -->
<svg xmlns="http://www.w3.org/2000/svg" xmlns:xlink="http://www.w3.org/1999/xlink" xmlns:ev="http://www.w3.org/2001/xml-events"
		xmlns:v="http://schemas.microsoft.com/visio/2003/SVGExtensions/" width="1.45764in" height="0.892467in"
		viewBox="0 0 104.95 64.2576" xml:space="preserve" color-interpolation-filters="sRGB" class="st6">
	<v:documentProperties v:langID="2052"/>

	<style type="text/css">
	<![CDATA[
		.st1 {fill:none;stroke:#000000;stroke-width:0.25}
		.st2 {fill:#00b0f0;font-family:Calibri;font-size:0.833336em}
		.st3 {fill:#000000;font-size:1em}
		.st4 {fill:#ff79b6;stroke:none;stroke-width:0.25}
		.st5 {fill:#feffff;font-family:Calibri;font-size:0.833336em}
		.st6 {fill:none;fill-rule:evenodd;font-size:12px;overflow:visible;stroke-linecap:square;stroke-miterlimit:3}
	]]>
	</style>

	<g v:mID="0" v:index="1" v:groupContext="foregroundPage">
		<title>页-1</title>
		<v:pageProperties v:drawingScale="1" v:pageScale="1" v:drawingUnits="0" v:shadowOffsetX="9" v:shadowOffsetY="-9"/>
		<g id="group1-1" transform="translate(0.25002,-0.249998)" v:mID="1" v:groupContext="group">
			<title>工作表.159</title>
			<g id="shape2-2" v:mID="2" v:groupContext="shape">
				<title>Rectangle.59</title>
				<desc>inst_name (v2500)</desc>
				<v:userDefs>
					<v:ud v:nameU="visVersion" v:val="VT0(15):26"/>
				</v:userDefs>
				<v:textBlock v:margins="rect(4,4,4,4)"/>
				<v:textRect cx="47.8182" cy="32.3788" width="95.65" height="63.7576"/>
				<rect x="0" y="0.5" width="95.6365" height="63.7576" class="st1"/>
				<text x="26.42" y="29.38" class="st2" v:langID="1033"><v:paragraph v:horizAlign="1"/><v:tabList/>inst_name<v:newlineChar/><tspan
							x="32.39" dy="1.2em" class="st3">(</tspan><tspan class="st3">v</tspan><tspan class="st3">2500</tspan><tspan
							class="st3">)</tspan></text>			</g>
			<g id="shape3-9" v:mID="3" v:groupContext="shape" transform="translate(78.2109,-26.75)">
				<title>Rectangle.60</title>
				<desc>his</desc>
				<v:userDefs>
					<v:ud v:nameU="visVersion" v:val="VT0(15):26"/>
				</v:userDefs>
				<v:textBlock v:margins="rect(4,4,4,4)"/>
				<v:textRect cx="13.1195" cy="59.2096" width="26.25" height="10.096"/>
				<path d="M0 59.76 A4.50011 4.50011 -180 0 0 4.5 64.26 L21.74 64.26 A4.50011 4.50011 -180 0 0 26.24 59.76 L26.24 58.66
							 A4.50011 4.50011 -180 0 0 21.74 54.16 L4.5 54.16 A4.50011 4.50011 -180 0 0 0 58.66 L0 59.76 Z"
						class="st4"/>
				<text x="4.86" y="62.21" class="st5" v:langID="2052"><v:paragraph v:horizAlign="1"/><v:tabList/>his1</text>			</g>
			<g id="shape4-12" v:mID="4" v:groupContext="shape" transform="translate(78.2109,-13.25)">
				<title>Rectangle.61</title>
				<desc>cap</desc>
				<v:userDefs>
					<v:ud v:nameU="visVersion" v:val="VT0(15):26"/>
				</v:userDefs>
				<v:textBlock v:margins="rect(4,4,4,4)"/>
				<v:textRect cx="13.1195" cy="59.2096" width="26.25" height="10.096"/>
				<path d="M0 59.76 A4.50011 4.50011 -180 0 0 4.5 64.26 L21.74 64.26 A4.50011 4.50011 -180 0 0 26.24 59.76 L26.24 58.66
							 A4.50011 4.50011 -180 0 0 21.74 54.16 L4.5 54.16 A4.50011 4.50011 -180 0 0 0 58.66 L0 59.76 Z"
						class="st4"/>
				<text x="5.98" y="62.21" class="st5" v:langID="1033"><v:paragraph v:horizAlign="1"/><v:tabList/>cap</text>			</g>
			<g id="shape5-15" v:mID="5" v:groupContext="shape" transform="translate(77.911,-40.25)">
				<title>Rectangle.62</title>
				<desc>out</desc>
				<v:userDefs>
					<v:ud v:nameU="visVersion" v:val="VT0(15):26"/>
				</v:userDefs>
				<v:textBlock v:margins="rect(4,4,4,4)"/>
				<v:textRect cx="13.1195" cy="59.2096" width="26.25" height="10.096"/>
				<path d="M0 59.76 A4.50011 4.50011 -180 0 0 4.5 64.26 L21.74 64.26 A4.50011 4.50011 -180 0 0 26.24 59.76 L26.24 58.66
							 A4.50011 4.50011 -180 0 0 21.74 54.16 L4.5 54.16 A4.50011 4.50011 -180 0 0 0 58.66 L0 59.76 Z"
						class="st4"/>
				<text x="7.39" y="62.21" class="st5" v:langID="2052"><v:paragraph v:horizAlign="1"/><v:tabList/>his</text>			</g>
		</g>
		<g id="shape6-18" v:mID="6" v:groupContext="shape" transform="translate(78.161,-54)">
			<title>Rectangle.62</title>
			<desc>out</desc>
			<v:userDefs>
				<v:ud v:nameU="visVersion" v:val="VT0(15):26"/>
			</v:userDefs>
			<v:textBlock v:margins="rect(4,4,4,4)"/>
			<v:textRect cx="13.1195" cy="59.2096" width="26.25" height="10.096"/>
			<path d="M0 59.76 A4.50011 4.50011 -180 0 0 4.5 64.26 L21.74 64.26 A4.50011 4.50011 -180 0 0 26.24 59.76 L26.24 58.66
						 A4.50011 4.50011 -180 0 0 21.74 54.16 L4.5 54.16 A4.50011 4.50011 -180 0 0 0 58.66 L0 59.76 Z" class="st4"/>
			<text x="6.18" y="62.21" class="st5" v:langID="1033"><v:paragraph v:horizAlign="1"/><v:tabList/>out</text>		</g>
		<g id="shape7-21" v:mID="7" v:groupContext="shape" transform="translate(78.161,0)">
			<title>Rectangle.7</title>
			<desc>out</desc>
			<v:userDefs>
				<v:ud v:nameU="visVersion" v:val="VT0(15):26"/>
			</v:userDefs>
			<v:textBlock v:margins="rect(4,4,4,4)"/>
			<v:textRect cx="13.1195" cy="59.2096" width="26.25" height="10.096"/>
			<path d="M0 59.76 A4.50011 4.50011 -180 0 0 4.5 64.26 L21.74 64.26 A4.50011 4.50011 -180 0 0 26.24 59.76 L26.24 58.66
						 A4.50011 4.50011 -180 0 0 21.74 54.16 L4.5 54.16 A4.50011 4.50011 -180 0 0 0 58.66 L0 59.76 Z" class="st4"/>
			<text x="6.42" y="62.21" class="st5" v:langID="2052"><v:paragraph v:horizAlign="1"/><v:tabList/>dsc</text>		</g>
	</g>
</svg>
